<?xml version="1.0" encoding="UTF-8"?>
<svg width="24px" height="24px" viewBox="0 0 24 24" version="1.1" xmlns="http://www.w3.org/2000/svg" xmlns:xlink="http://www.w3.org/1999/xlink">
    <!-- Generator: Sketch 60.1 (88133) - https://sketch.com -->
    <title>Rectangle</title>
    <desc>Created with Sketch.</desc>
    <g id="Page-1" stroke="none" stroke-width="1" fill="none" fill-rule="evenodd">
        <g id="切图" transform="translate(-112.000000, -87.000000)">
            <g id="12345" transform="translate(112.000000, 87.000000)">
                <rect id="Rectangle" fill="#D8D8D8" opacity="0" x="0" y="0" width="24" height="24"></rect>
                <path d="M2.28569655,6.32111942 C-0.384079571,12.3330597 2.38644282,16.5170149 2.38644282,16.5170149 C4.86990522,20.4942115 8.91807515,20.6929551 9.51497392,20.7003002 L9.58942789,20.7002239 C17.0610697,20.7856717 20.9894279,14.6543284 20.9894279,14.6543284 C20.7886816,15.3483582 19.8144279,16.8050746 19.8144279,16.8050746 C16.2722637,21.8517164 11.9905473,22.9017164 8.21256222,22.5964925 C4.16592043,22.5297015 0.489054758,18.8711194 0.0356965486,14.3323134 C-0.333706436,9.55582091 2.28569655,6.32111942 2.28569655,6.32111942 Z M9.49987565,2.20494148 C9.49987565,2.20494148 11.3804727,2.25022389 12.4099503,2.95059703 C12.4099503,2.95059703 11.0442786,3.51514927 10.2834577,4.75694031 C10.2834577,4.75694031 5.67189058,4.35059703 4.53009953,10.1315672 L4.52199307,10.1678257 C4.41126222,10.6846159 3.30772794,16.574302 10.1718906,18.0580597 C10.1718906,18.0580597 13.8207712,18.7125373 17.1569652,16.1610448 C17.1569652,16.1610448 14.5823383,19.5935075 10.2166667,19.7509702 C5.85099506,19.9095523 1.39577118,16.6356717 1.41807521,10.8091791 C1.44017416,4.98305971 6.0297264,2.18268658 9.49987565,2.20494148 Z M15.9356965,10.3349254 C16.4733831,10.453209 16.4226368,10.808806 16.4226368,10.808806 L16.4226368,10.808806 L16.2886816,11.2155224 C16.0032339,12.1808209 15.5330846,12.1468657 15.5330846,12.1468657 C16.0700249,12.52 15.7181592,13.0785821 15.7181592,13.0785821 C15.364801,14.1964925 14.7103234,14.247612 14.7103234,14.247612 C14.7103234,14.247612 13.2830846,14.2979851 12.8129354,14.247612 C12.342413,14.1964925 12.2256219,13.8744776 12.2256219,13.6714925 C12.2256219,13.4685075 12.5942786,12.7737314 12.5942786,12.7737314 L12.5942786,12.7737314 L13.7200249,12.7565672 L13.5853234,13.2308209 C13.6860697,13.57 14.3912936,13.3162687 14.3912936,13.3162687 L14.3912936,13.3162687 L14.559204,12.5707463 L13.8707712,12.5707463 L14.1058458,11.6222388 L14.9450249,11.6222388 L15.0457712,11.2158955 L14.3241294,11.2158955 L14.2065921,11.47 L12.9636816,11.47 C13.0312189,10.5718657 13.8371891,10.3352985 13.836816,10.3349254 L13.836816,10.3349254 Z M23.9450249,10.3352985 L23.7435324,11.1987314 L21.661816,11.1987314 L21.6110697,11.6222388 L23.1226368,11.6222388 C23.5252488,11.656194 23.3409204,12.4520896 23.3409204,12.4520896 C23.3409204,12.4520896 23.2905473,12.706194 23.0047264,13.4341791 C22.7196518,14.1629105 22.0532339,14.2696269 22.0532339,14.2696269 C22.0532339,14.2696269 21.0065921,14.2640299 20.5032339,14.2696269 C19.9991294,14.2752239 19.6468906,14.0774627 19.6133085,13.7729851 C19.5797264,13.4685075 19.9655473,12.8752239 19.9655473,12.8752239 L19.9655473,12.8752239 L21.0931592,12.8416418 C21.0075249,13.0322202 20.9919932,13.1845989 20.9895795,13.2488771 L20.9894279,13.2819403 L21.8129354,13.2819403 L21.9636816,12.8752239 C22.164801,12.3166418 21.9636816,12.3841791 21.9636816,12.3841791 L21.9636816,12.3841791 L20.1334577,12.3841791 L20.7379354,10.3352985 L23.9450249,10.3352985 Z M9.28681595,10.3352985 L8.06106968,14.1632836 L6.90286073,14.1632836 L7.74241297,11.47 L7.3058458,11.4192537 L7.44017416,10.8938806 C7.44017416,10.8938806 8.09502491,10.8599254 8.4308458,10.3352985 L9.28681595,10.3352985 Z M10.2939055,10.3349254 C10.2939055,10.3349254 12.0237563,10.300597 12.3759951,10.3349254 C12.7282339,10.3685075 12.8125622,10.808806 12.8125622,10.808806 C12.7121891,11.7573134 12.2420398,12.2483582 12.2420398,12.2483582 L12.2420398,12.2483582 L10.6972637,13.2983582 L11.9901742,13.3158955 L11.6547264,14.1629105 L8.46405476,14.1629105 L8.74987565,13.2819403 C10.2274876,12.4013433 11.4196518,11.4069403 11.4196518,11.4069403 L11.4196518,11.4069403 L11.4196518,11.1987314 C11.4196518,11.1987314 10.8319652,11.1815672 10.6636816,11.1987314 C10.495398,11.2158955 10.3782339,11.6222388 10.3782339,11.6222388 L10.3782339,11.6222388 L9.28681595,11.6222388 C9.53905476,10.3517164 10.2939055,10.3349254 10.2939055,10.3349254 Z M19.9655473,10.32 L19.2939055,12.5028358 L19.6800995,12.52 L19.4450249,13.4341791 L19.042413,13.4341791 L18.7737563,14.1629105 L17.5144279,14.1629105 L17.758,13.419 L15.8521145,13.4341791 L16.0629354,12.5875373 L17.8162936,10.3352985 L18.7737563,10.3352985 L19.9655473,10.32 Z M18.493,11.186 L17.3633085,12.5364179 L18.054,12.521 L18.493,11.186 Z M22.7532339,6.67671643 C22.7532339,6.67671643 23.0670398,8.57335822 19.4629354,8.3024627 C15.8584577,8.03119404 18.2987563,5.61514927 18.2987563,5.61514927 C18.2987563,5.61514927 18.5450249,5.00544777 17.3808458,4.5763433 C16.2166667,4.14761195 15.4778607,3.89910449 13.0819652,4.48604479 C10.6871891,5.07298509 9.61256222,6.67671643 9.79129356,8.07671643 C9.97039804,9.47671643 11.828607,8.57335822 12.1416667,7.78305971 C12.4547264,6.99276121 12.3651742,6.2024627 11.7386816,5.2763433 C11.7386816,5.2763433 12.7237563,4.64425374 13.9103234,4.64425374 C13.9103234,4.64425374 14.3129354,5.15208956 14.2912936,6.32111942 C14.2681592,7.48977613 13.4625622,9.20582091 11.3812189,9.45432837 L11.3532882,9.45451956 C11.1714897,9.4528235 10.1467888,9.39808685 9.60099506,8.39910449 C9.45211446,8.12708956 9.36144282,7.72671643 9.36592043,7.33156718 C9.36927864,7.01291046 9.34353237,6.96813434 9.57300998,6.4035821 C10.1916667,4.8785821 12.0689055,2.05171643 17.4920398,2.00208956 C17.4920398,2.00208956 22.5521145,1.7535821 22.7532339,6.67671643 Z" id="Combined-Shape" fill="#337CDB" fill-rule="nonzero"></path>
            </g>
        </g>
    </g>
</svg>