<?xml version="1.0" encoding="UTF-8"?>
<svg width="16px" height="16px" viewBox="0 0 16 16" version="1.1" xmlns="http://www.w3.org/2000/svg" xmlns:xlink="http://www.w3.org/1999/xlink">
    <!-- Generator: Sketch 60.1 (88133) - https://sketch.com -->
    <title>Rectangle</title>
    <desc>Created with Sketch.</desc>
    <g id="1.0" stroke="none" stroke-width="1" fill="none" fill-rule="evenodd">
        <g id="切图" transform="translate(-498.000000, -190.000000)" fill-rule="nonzero">
            <g id="icon/btn/add-bro" transform="translate(498.000000, 190.000000)">
                <rect id="Rectangle" fill="#000000" opacity="0" x="0" y="0" width="16" height="16"></rect>
                <path d="M11.7653696,9.2 C12.0282101,9.2 12.2420233,9.41381323 12.2420233,9.6766537 L12.2420233,9.6766537 L12.2420233,10.888716 L13.4540856,10.888716 C13.7169261,10.888716 13.9307393,11.1025292 13.9307393,11.3653696 C13.9307393,11.6282101 13.7169261,11.8420233 13.4540856,11.8420233 L13.4540856,11.8420233 L12.2420233,11.8420233 L12.2420233,13.0540856 C12.2420233,13.3169261 12.0282101,13.5307393 11.7653696,13.5307393 C11.5025292,13.5307393 11.288716,13.3169261 11.288716,13.0540856 L11.288716,13.0540856 L11.288716,11.8420233 L10.0766537,11.8420233 C9.81381323,11.8420233 9.6,11.6282101 9.6,11.3653696 C9.6,11.1025292 9.81381323,10.888716 10.0766537,10.888716 L10.0766537,10.888716 L11.288716,10.888716 L11.288716,9.6766537 C11.288716,9.41381323 11.5025292,9.2 11.7653696,9.2 Z M7.684,10.89 C7.96014237,10.89 8.184,11.1138576 8.184,11.39 C8.184,11.6661424 7.96014237,11.89 7.684,11.89 L7.684,11.89 L4.634,11.89 C4.35785763,11.89 4.134,11.6661424 4.134,11.39 C4.134,11.1138576 4.35785763,10.89 4.634,10.89 L4.634,10.89 Z M2.5,10.89 C2.77614237,10.89 3,11.1138576 3,11.39 C3,11.6661424 2.77614237,11.89 2.5,11.89 C2.22385763,11.89 2,11.6661424 2,11.39 C2,11.1138576 2.22385763,10.89 2.5,10.89 Z M13.5,7 C13.7761424,7 14,7.22385763 14,7.5 C14,7.77614237 13.7761424,8 13.5,8 L13.5,8 L4.634,8 C4.35785763,8 4.134,7.77614237 4.134,7.5 C4.134,7.22385763 4.35785763,7 4.634,7 L4.634,7 Z M2.5,7 C2.77614237,7 3,7.22385763 3,7.5 C3,7.77614237 2.77614237,8 2.5,8 C2.22385763,8 2,7.77614237 2,7.5 C2,7.22385763 2.22385763,7 2.5,7 Z M2.5,3 C2.77614237,3 3,3.22385763 3,3.5 C3,3.77614237 2.77614237,4 2.5,4 C2.22385763,4 2,3.77614237 2,3.5 C2,3.22385763 2.22385763,3 2.5,3 Z M13.5,3 C13.7761424,3 14,3.22385763 14,3.5 C14,3.77614237 13.7761424,4 13.5,4 L13.5,4 L4.634,4 C4.35785763,4 4.134,3.77614237 4.134,3.5 C4.134,3.22385763 4.35785763,3 4.634,3 L4.634,3 Z" id="Combined-Shape" fill="#337CDB"></path>
            </g>
        </g>
    </g>
</svg>