<?xml version="1.0" encoding="UTF-8"?>
<svg width="16px" height="16px" viewBox="0 0 16 16" version="1.1" xmlns="http://www.w3.org/2000/svg" xmlns:xlink="http://www.w3.org/1999/xlink">
    <!-- Generator: Sketch 60.1 (88133) - https://sketch.com -->
    <title>Rectangle</title>
    <desc>Created with Sketch.</desc>
    <g id="1.0" stroke="none" stroke-width="1" fill="none" fill-rule="evenodd">
        <g id="切图" transform="translate(-390.000000, -190.000000)" fill-rule="nonzero">
            <g id="icon/btn/add-son" transform="translate(390.000000, 190.000000)">
                <rect id="Rectangle" fill="#000000" opacity="0" x="0" y="0" width="15.9377432" height="15.9377432"></rect>
                <g id="Group-5" transform="translate(1.000000, 1.000000)" fill="#337CDB">
                    <path d="M11.7801556,9.61478599 C12.0429961,9.61478599 12.2568093,9.82859922 12.2568093,10.0914397 L12.2568093,10.0914397 L12.2568093,11.3035019 L13.4688716,11.3035019 C13.7317121,11.3035019 13.9455253,11.5173152 13.9455253,11.7801556 C13.9455253,12.0429961 13.7317121,12.2568093 13.4688716,12.2568093 L13.4688716,12.2568093 L12.2568093,12.2568093 L12.2568093,13.4688716 C12.2568093,13.7317121 12.0429961,13.9455253 11.7801556,13.9455253 C11.5173152,13.9455253 11.3035019,13.7317121 11.3035019,13.4688716 L11.3035019,13.4688716 L11.3035019,12.2568093 L10.0914397,12.2568093 C9.82859922,12.2568093 9.61478599,12.0429961 9.61478599,11.7801556 C9.61478599,11.5173152 9.82859922,11.3035019 10.0914397,11.3035019 L10.0914397,11.3035019 L11.3035019,11.3035019 L11.3035019,10.0914397 C11.3035019,9.82859922 11.5173152,9.61478599 11.7801556,9.61478599 Z M8.30466926,-5.29354338e-13 C8.74182879,-5.29354338e-13 9.09455253,0.354085603 9.09455253,0.789883268 L9.09455253,0.789883268 L9.09455253,3.85136187 C9.09455253,4.28715953 8.74046693,4.64124514 8.30466926,4.64124514 L8.30466926,4.64124514 L2.47859922,4.64124514 L2.47859922,8.98832685 L4.35797665,8.98832685 L4.35797665,7.28735409 C4.35797665,7.02451362 4.57178988,6.81070039 4.83463035,6.81070039 L4.83463035,6.81070039 L13.5219844,6.81070039 C13.7848249,6.81070039 13.9986381,7.02451362 13.9986381,7.28735409 L13.9986381,7.28735409 L13.9986381,8.32101167 C13.9986381,8.58385214 13.7848249,8.79766537 13.5219844,8.79766537 C13.259144,8.79766537 13.0453307,8.58385214 13.0453307,8.32101167 L13.0453307,8.32101167 L13.0453307,7.76400778 L5.31128405,7.76400778 L5.31128405,11.4519455 L7.91245136,11.4519455 C8.17529183,11.4519455 8.38910506,11.6657588 8.38910506,11.9285992 C8.38910506,12.1914397 8.17529183,12.4052529 7.91245136,12.4052529 L7.91245136,12.4052529 L4.83463035,12.4052529 C4.57178988,12.4052529 4.35797665,12.1914397 4.35797665,11.9285992 L4.35797665,11.9285992 L4.35797665,9.94163424 L2.11089494,9.94163424 C1.97879377,9.94163424 1.85894942,9.88715953 1.77315175,9.80136187 C1.62607004,9.72101167 1.52529183,9.56439689 1.52529183,9.38326848 L1.52529183,9.38326848 L1.52529183,4.64124514 L0.789883268,4.64124514 C0.354085603,4.64124514 3.38395978e-13,4.28715953 3.38395978e-13,3.85136187 L3.38395978e-13,3.85136187 L3.38395978e-13,0.789883268 C3.38395978e-13,0.354085603 0.354085603,-5.29354338e-13 0.789883268,-5.29354338e-13 L0.789883268,-5.29354338e-13 Z M8.14124514,0.953307393 L0.953307393,0.953307393 L0.953307393,3.68793774 L8.14124514,3.68793774 L8.14124514,0.953307393 Z" id="Combined-Shape"></path>
                </g>
            </g>
        </g>
    </g>
</svg>