<?xml version="1.0" encoding="UTF-8"?>
<svg width="20px" height="20px" viewBox="0 0 20 20" version="1.1" xmlns="http://www.w3.org/2000/svg" xmlns:xlink="http://www.w3.org/1999/xlink">
    <!-- Generator: Sketch 60.1 (88133) - https://sketch.com -->
    <title>Rectangle</title>
    <desc>Created with Sketch.</desc>
    <g id="1.0" stroke="none" stroke-width="1" fill="none" fill-rule="evenodd">
        <g id="切图" transform="translate(-79.000000, -49.000000)">
            <g id="shielding" transform="translate(79.000000, 49.000000)">
                <rect id="Rectangle" fill="#000000" fill-rule="nonzero" opacity="0" x="0" y="0" width="20" height="20"></rect>
                <path d="M10.011875,15 L4.3725,15 C4.02908913,14.9996562 3.75068872,14.7215353 3.75,14.378125 L3.751875,5 L15.630625,5 C15.9725,5 16.249375,5.281875 16.249375,5.6275 L16.249375,8.78875 C16.249375,9.13392797 16.529197,9.41375 16.874375,9.41375 C17.219553,9.41375 17.4993767,9.13392797 17.4993767,8.78875 L17.4993767,5.6275 C17.5007604,4.59366958 16.6650744,3.75378979 15.63125,3.74999855 L3.751875,3.74999855 C3.06249242,3.74896171 2.50241206,4.30624585 2.5,4.995625 L2.5,14.378125 C2.50172132,15.4114631 3.33916136,16.2486236 4.3725,16.2499986 L10.011875,16.2499986 C10.357053,16.2499986 10.636875,15.970178 10.636875,15.625 C10.636875,15.279822 10.357053,15 10.011875,15 M8.125,10 L5.625,10 C5.27982203,10 5,10.279822 5,10.625 C5,10.970178 5.27982203,11.25 5.625,11.25 L8.125,11.25 C8.47017797,11.25 8.75,10.970178 8.75,10.625 C8.75,10.279822 8.47017797,10 8.125,10 M8.125,12.5 L5.625,12.5 C5.27982203,12.5 5,12.779822 5,13.125 C5,13.470178 5.27982203,13.75 5.625,13.75 L8.125,13.75 C8.47017797,13.75 8.75,13.470178 8.75,13.125 C8.75,12.779822 8.47017797,12.5 8.125,12.5 M10.625,7.5 L5.625,7.5 C5.27982203,7.5 5,7.77982203 5,8.125 C5,8.47017797 5.27982203,8.75 5.625,8.75 L10.625,8.75 C10.970178,8.75 11.25,8.47017797 11.25,8.125 C11.25,7.77982203 10.970178,7.5 10.625,7.5" id="Shape" fill="#2C85F9"></path>
                <path d="M15.525,16.25 C14.20125,16.25 13.125,15.12875 13.125,13.75 C13.125,12.37125 14.20125,11.25 15.525,11.25 C16.84875,11.25 17.925,12.37125 17.925,13.75 C17.925,15.12875 16.84875,16.25 15.525,16.25 M15.525,10 C13.539375,10 11.925,11.681875 11.925,13.75 C11.925,15.818125 13.539375,17.5 15.525,17.5 C17.510625,17.5 19.125,15.818125 19.125,13.75 C19.125,11.681875 17.510625,10 15.525,10 M16.6862973,14.273259 L16.1435928,13.7305546 L16.7022072,13.1719402 C16.8732386,13.0009088 16.8789839,12.7299985 16.7145815,12.5655961 C16.6325455,12.4868087 16.5225648,12.4438476 16.4088459,12.4461684 C16.2951271,12.4484892 16.1869907,12.4959017 16.1082375,12.5779705 L15.5496231,13.1365849 L14.989241,12.5762027 C14.907205,12.4974153 14.7972242,12.4544542 14.6835054,12.456775 C14.5697865,12.4590958 14.4616501,12.5065083 14.3828969,12.5885771 C14.2118655,12.7596086 14.2061202,13.0305189 14.3705225,13.1949212 L14.9309047,13.7553033 L14.3404705,14.3457375 C14.1694391,14.5167689 14.1636938,14.7876792 14.3280961,14.9520815 C14.4101321,15.0308689 14.5201129,15.0738301 14.6338317,15.0715093 C14.7475506,15.0691885 14.855687,15.021776 14.9344402,14.9397072 L15.5248744,14.349273 L16.0675788,14.8919775 C16.1496148,14.9707648 16.2595956,15.013726 16.3733144,15.0114052 C16.4870333,15.0090844 16.5951697,14.9616719 16.6739229,14.8796031 C16.8449543,14.7085716 16.8506996,14.4376613 16.6862973,14.273259" id="Shape" fill="#2C85F9"></path>
            </g>
        </g>
    </g>
</svg>