<?xml version="1.0" encoding="UTF-8"?>
<svg width="20px" height="20px" viewBox="0 0 20 20" version="1.1" xmlns="http://www.w3.org/2000/svg" xmlns:xlink="http://www.w3.org/1999/xlink">
    <!-- Generator: Sketch 60.1 (88133) - https://sketch.com -->
    <title>Rectangle</title>
    <desc>Created with Sketch.</desc>
    <g id="1.0" stroke="none" stroke-width="1" fill="none" fill-rule="evenodd">
        <g id="切图" transform="translate(-643.000000, -109.000000)">
            <g id="empty" transform="translate(643.000000, 109.000000)">
                <rect id="Rectangle" fill="#000000" opacity="0" x="0" y="0" width="20" height="20"></rect>
                <path d="M11.5275,8.870625 L11.5275,12.981875 C11.5275,13.327053 11.807322,13.606875 12.1525,13.606875 C12.497678,13.606875 12.7775,13.327053 12.7775,12.981875 L12.7775,8.870625 C12.7775,8.52544703 12.497678,8.245625 12.1525,8.245625 C11.807322,8.245625 11.5275,8.52544703 11.5275,8.870625 L11.5275,8.870625 Z M7.7775,8.870625 L7.7775,12.981875 C7.7775,13.327053 8.05732203,13.606875 8.4025,13.606875 C8.74767797,13.606875 9.0275,13.327053 9.0275,12.981875 L9.0275,8.870625 C9.0275,8.52544703 8.74767797,8.245625 8.4025,8.245625 C8.05732203,8.245625 7.7775,8.52544703 7.7775,8.870625 L7.7775,8.870625 Z M7.37625,5.07 L7.2025,3.8325 L12.15375,3.13625 L12.328125,4.374375 L7.37625,5.07 Z M16.040625,3.8525 L13.565625,4.2 L13.33375,2.55125 C13.3069361,2.36215974 13.2053965,2.19172633 13.051875,2.078125 C12.73125,1.83625 12.245625,1.861875 11.9825,1.898125 L7.025,2.595 C6.115,2.723125 5.85,3.194375 5.90625,3.5925 L6.1375,5.24375 L3.6625,5.591875 C3.43768587,5.61875846 3.24499099,5.7651259 3.15878429,5.97448808 C3.07257759,6.18385025 3.10634135,6.42346401 3.24704473,6.60085249 C3.38774811,6.77824097 3.61338585,6.86566155 3.836875,6.829375 L4.73375,6.70375 C4.6823323,6.79282909 4.65417485,6.89342212 4.651875,6.99625 L4.651875,15.745 C4.651875,16.435 5.2125,16.995625 5.901875,16.995625 L14.65125,16.995625 C15.3414214,16.9945916 15.9005616,16.4351718 15.90125,15.745 L15.90125,6.99625 C15.90125,6.65107203 15.621428,6.37125 15.27625,6.37125 C14.931072,6.37125 14.65125,6.65107203 14.65125,6.99625 L14.65125,15.745625 L5.90125,15.745 L5.90125,6.99625 C5.90112505,6.83492523 5.83812439,6.68000191 5.725625,6.564375 L16.215,5.09 C16.5566977,5.04162683 16.7945207,4.7254622 16.74625,4.38375 C16.7247822,4.21884028 16.6377706,4.06953739 16.504871,3.96956861 C16.3719713,3.86959982 16.204396,3.82739928 16.04,3.8525 L16.040625,3.8525 Z" id="Shape" fill="#95A1B7" fill-rule="nonzero"></path>
            </g>
        </g>
    </g>
</svg>