<?xml version="1.0" encoding="UTF-8"?>
<svg width="16px" height="16px" viewBox="0 0 16 16" version="1.1" xmlns="http://www.w3.org/2000/svg" xmlns:xlink="http://www.w3.org/1999/xlink">
    <!-- Generator: Sketch 60.1 (88133) - https://sketch.com -->
    <title>Rectangle</title>
    <desc>Created with Sketch.</desc>
    <g id="1.0" stroke="none" stroke-width="1" fill="none" fill-rule="evenodd">
        <g id="切图" transform="translate(-311.000000, -190.000000)" fill-rule="nonzero">
            <g id="icon/btn/delete" transform="translate(311.000000, 190.000000)">
                <rect id="Rectangle" fill="#000000" opacity="0" x="0" y="0" width="16" height="16"></rect>
                <path d="M9.222,7.0965 L9.222,10.3855 C9.222,10.6616424 9.44585763,10.8855 9.722,10.8855 C9.99814237,10.8855 10.222,10.6616424 10.222,10.3855 L10.222,7.0965 C10.222,6.82035763 9.99814237,6.5965 9.722,6.5965 C9.44585763,6.5965 9.222,6.82035763 9.222,7.0965 M6.222,7.0965 L6.222,10.3855 C6.222,10.6616424 6.44585763,10.8855 6.722,10.8855 C6.99814237,10.8855 7.222,10.6616424 7.222,10.3855 L7.222,7.0965 C7.222,6.82035763 6.99814237,6.5965 6.722,6.5965 C6.44585763,6.5965 6.222,6.82035763 6.222,7.0965 M5.901,4.056 L5.762,3.066 L9.723,2.509 L9.8625,3.4995 L5.901,4.056 Z M12.8325,3.082 L10.8525,3.36 L10.667,2.041 C10.6455489,1.88972779 10.5643172,1.75338106 10.4415,1.6625 C10.185,1.469 9.7965,1.4895 9.586,1.5185 L5.62,2.076 C4.892,2.1785 4.68,2.5555 4.725,2.874 L4.91,4.195 L2.93,4.4735 C2.75014869,4.49500677 2.59599279,4.61210072 2.52702743,4.77959046 C2.45806207,4.9470802 2.48507308,5.13877121 2.59763579,5.28068199 C2.71019849,5.42259278 2.89070868,5.49252924 3.0695,5.4635 L3.787,5.363 C3.74586584,5.43426327 3.72333988,5.51473769 3.7215,5.597 L3.7215,12.596 C3.7215,13.148 4.17,13.5965 4.7215,13.5965 L11.721,13.5965 C12.2731371,13.5956733 12.7204493,13.1481375 12.721,12.596 L12.721,5.597 C12.721,5.32085763 12.4971424,5.097 12.221,5.097 C11.9448576,5.097 11.721,5.32085763 11.721,5.597 L11.721,12.5965 L4.721,12.596 L4.721,5.597 C4.72090004,5.46794019 4.67049951,5.34400153 4.5805,5.2515 L12.972,4.072 C13.2453582,4.03330147 13.4356165,3.78036976 13.397,3.507 C13.3798258,3.37507222 13.3102165,3.25562991 13.2038968,3.17565489 C13.097577,3.09567986 12.9635168,3.06191942 12.832,3.082 L12.8325,3.082 Z" id="Shape" fill="#337CDB"></path>
            </g>
        </g>
    </g>
</svg>