<?xml version="1.0" encoding="UTF-8"?>
<svg width="16px" height="16px" viewBox="0 0 16 16" version="1.1" xmlns="http://www.w3.org/2000/svg" xmlns:xlink="http://www.w3.org/1999/xlink">
    <!-- Generator: Sketch 60.1 (88133) - https://sketch.com -->
    <title>Rectangle</title>
    <desc>Created with Sketch.</desc>
    <g id="1.0" stroke="none" stroke-width="1" fill="none" fill-rule="evenodd">
        <g id="切图" transform="translate(-281.000000, -124.000000)" fill-rule="nonzero">
            <g id="浏览器-IE-Copy" transform="translate(281.000000, 124.000000)">
                <rect id="Rectangle" fill="#000000" opacity="0" x="0" y="0" width="16" height="16"></rect>
                <path d="M14.8333242,8.62082422 C14.8333242,8.85416211 14.8333242,9.11666211 14.8041621,9.35 L6.52082422,9.35 C6.52082422,10.7791621 7.775,11.8291621 9.14582422,11.8291621 C10.0791621,11.8291621 10.9833242,11.3625 11.45,10.5458242 L14.4833242,10.5458242 C13.6666621,12.85 11.5083242,14.3958242 9.05832422,14.3958242 C8.18332422,14.3958242 7.30832422,14.1916621 6.52082422,13.7833242 C5.70416211,14.1916621 4.59582422,14.6291621 3.69166211,14.6291621 C2.46666211,14.6291621 2,13.9 2,12.7333242 C2,12.0625 2.14582422,11.4208242 2.35,10.7791621 C2.4375,10.3708242 2.93332422,9.525 3.1375,9.11666211 C4.0125,7.54166211 5.15,5.96666211 6.55,4.77082422 C5.47082422,5.2375 4.24582422,6.43332422 3.4875,7.30832422 C4.07082422,4.7125 6.40416211,2.84582422 9.05832422,2.84582422 L9.40832422,2.84582422 C10.2833242,2.4375 11.5375,2 12.5291621,2 C13.6666621,2 14.6875,2.4375 14.6875,3.75 C14.6875,4.42082422 14.425,5.17916211 14.1333242,5.82082422 C14.6,6.66666211 14.8333242,7.65832422 14.8333242,8.62082422 L14.8333242,8.62082422 Z M14.3375,4.04166211 C14.3375,3.225 13.7541621,2.75832422 12.9958242,2.75832422 C12.3833242,2.75832422 11.7125,2.99166211 11.1583242,3.25416211 C12.3541621,3.72082422 13.3166621,4.5375 13.9583242,5.5875 C14.1625,5.12082422 14.3375,4.5375 14.3375,4.04166211 L14.3375,4.04166211 Z M2.90416211,12.8791621 C2.90416211,13.725 3.4,14.1625 4.21666211,14.1625 C4.85832422,14.1625 5.55832422,13.9 6.1125,13.55 C4.91666211,12.85 4.04166211,11.7708242 3.60416211,10.4875 C3.28332422,11.1875 2.90416211,12.1208242 2.90416211,12.8791621 Z M6.52082422,7.775 L11.7125,7.775 C11.6833242,6.40416211 10.4291621,5.4125 9.11666211,5.4125 C7.775,5.4125 6.55,6.40416211 6.52082422,7.775 Z" id="Shape" fill="#337CDB"></path>
            </g>
        </g>
    </g>
</svg>