<?xml version="1.0" encoding="UTF-8"?>
<svg width="16px" height="16px" viewBox="0 0 16 16" version="1.1" xmlns="http://www.w3.org/2000/svg" xmlns:xlink="http://www.w3.org/1999/xlink">
    <!-- Generator: Sketch 60.1 (88133) - https://sketch.com -->
    <title>Rectangle</title>
    <desc>Created with Sketch.</desc>
    <g id="1.0" stroke="none" stroke-width="1" fill="none" fill-rule="evenodd">
        <g id="切图" transform="translate(-77.000000, -190.000000)" fill-rule="nonzero">
            <g id="icon/btn/editor" transform="translate(77.000000, 190.000000)">
                <rect id="Rectangle" fill="#000000" opacity="0" x="0" y="0" width="16" height="16"></rect>
                <path d="M7.6465,8.3535 C7.74006756,8.44760462 7.86729518,8.50051743 8,8.50051743 C8.13270482,8.50051743 8.25993244,8.44760462 8.3535,8.3535 L13.1035,3.6035 C13.2297934,3.47720661 13.2791166,3.29312999 13.23289,3.12061002 C13.1866634,2.94809004 13.05191,2.8133366 12.87939,2.76711001 C12.70687,2.72088343 12.5227934,2.77020661 12.3965,2.8965 L7.6465,7.6465 C7.55264182,7.74019872 7.49989942,7.8673772 7.49989942,8 C7.49989942,8.1326228 7.55264182,8.25980128 7.6465,8.3535 M13,7.5 C12.7238576,7.5 12.5,7.72385763 12.5,8 L12.504,12.5 L3.5,12.504 L3.496,3.5 L8,3.5 C8.27614237,3.5 8.5,3.27614237 8.5,3 C8.5,2.72385763 8.27614237,2.5 8,2.5 L3.496,2.5 C2.94626691,2.50082605 2.50082605,2.94626691 2.5,3.496 L2.5,12.504 C2.5,13.053 2.947,13.5 3.496,13.5 L12.504,13.5 C13.0537331,13.499174 13.499174,13.0537331 13.5,12.504 L13.5,8 C13.5,7.72385763 13.2761424,7.5 13,7.5" id="Shape" fill="#337CDB"></path>
            </g>
        </g>
    </g>
</svg>