<?xml version="1.0" encoding="UTF-8"?>
<svg width="20px" height="20px" viewBox="0 0 20 20" version="1.1" xmlns="http://www.w3.org/2000/svg" xmlns:xlink="http://www.w3.org/1999/xlink">
    <!-- Generator: Sketch 60.1 (88133) - https://sketch.com -->
    <title>Rectangle</title>
    <desc>Created with Sketch.</desc>
    <g id="1.0" stroke="none" stroke-width="1" fill="none" fill-rule="evenodd">
        <g id="切图" transform="translate(-513.000000, -109.000000)">
            <g id="brush" transform="translate(513.000000, 109.000000)">
                <rect id="Rectangle" fill="#000000" opacity="0" x="0" y="0" width="20" height="20"></rect>
                <path d="M14.978125,8.50125 L11.52875,5.05125 L12.831875,3.7475 L16.28,7.19875 L14.978125,8.50125 L14.978125,8.50125 Z M7.840625,15.64375 L4.3875,12.19125 L4.3925,12.1925 L10.645,5.935625 L14.095,9.385625 L7.839375,15.64375 L7.840625,15.64375 Z M4.375,15.6625 L4.375,13.94625 L6.088125,15.65875 L4.375625,15.6625 L4.375,15.6625 Z M17.16875,6.31625 L13.71625,2.864375 C13.4852012,2.62447707 13.16423,2.49232581 12.83125,2.5 C12.5003404,2.5011615 12.1834074,2.63355406 11.95,2.868125 L3.5075,11.30875 C3.23004057,11.5877912 3.10034064,11.9812915 3.1575,12.370625 C3.1425,12.423125 3.124375,12.474375 3.124375,12.531875 L3.124375,15.6625 C3.124375,16.34875 3.6825,16.90625 4.36875,16.90625 L7.5,16.90625 C7.55625,16.90625 7.6075,16.88875 7.66,16.874375 C7.718125,16.8825 7.77625,16.890625 7.835,16.890625 C8.155625,16.890625 8.4775,16.768125 8.7225,16.523125 L17.163125,8.0825 C17.6514808,7.59572619 17.6534383,6.80543713 17.1675,6.31625 L17.16875,6.31625 Z" id="Shape" fill="#95A1B7" fill-rule="nonzero"></path>
            </g>
        </g>
    </g>
</svg>