<?xml version="1.0" encoding="UTF-8"?>
<svg width="110px" height="119px" viewBox="0 0 110 119" version="1.1" xmlns="http://www.w3.org/2000/svg" xmlns:xlink="http://www.w3.org/1999/xlink">
    <!-- Generator: Sketch 60.1 (88133) - https://sketch.com -->
    <title>2.Template/1.Mobile/Mobile—Empty State</title>
    <desc>Created with Sketch.</desc>
    <g id="1.0" stroke="none" stroke-width="1" fill="none" fill-rule="evenodd">
        <g id="切图" transform="translate(-72.000000, -332.000000)">
            <g id="2.Template/1.Mobile/Mobile—Empty-State" transform="translate(62.000000, 332.000000)">
                <g id="Background">
                    <path d="M29.8776474,12.2460264 C38.3062784,-6.80305403 91.895024,-3.31662525 108.383869,21.4120538 C124.872714,46.1407328 106.02832,101.078838 89.1362465,101.078838 C72.2441734,101.078838 72.2441734,63.9865454 65.2790579,53.0932698 C58.3139425,42.1999942 21.4490164,31.2951069 29.8776474,12.2460264 Z" id="Weird-Shape" fill="#F3F6FC"></path>
                    <path d="M34.6077327,72.99913 C44.4956872,75.264643 44.8971316,64.5227714 44.8922263,50.2592524 C44.8873211,35.9957333 46.8635314,19.634784 36.9755769,17.3692711 C27.0876224,15.1037581 16.6902204,28.8071511 16.6951238,43.0706701 C16.7000308,57.3341891 24.7197782,70.7336171 34.6077327,72.99913 Z" id="Weird-Shape" fill-opacity="0.6" fill="#CBCEE3" transform="translate(30.872699, 45.212033) rotate(49.000000) translate(-30.872699, -45.212033) "></path>
                    <path d="M105.182545,93.717777 C111.991017,93.717777 119.502075,87.1987348 119.502075,78.8917568 C119.502075,70.5847788 111.991017,64.0657366 105.182545,64.0657366 C98.374073,64.0657366 95.842268,73.5723306 95.842268,80.3855327 C95.842268,87.1987348 98.374073,93.717777 105.182545,93.717777 Z" id="Weird-Shape" fill-opacity="0.7" fill="#E8E8E8"></path>
                </g>
                <g id="A-Human/Sitting" transform="translate(13.950207, 30.896266)">
                    <g id="Head/Front" transform="translate(32.775934, 0.000000)">
                        <g id="Head" transform="translate(1.340249, 2.264432)" fill="#EDDCCC">
                            <path d="M10.1293521,2.43505693 C11.668223,5.31457737 11.4853651,12.6187198 9.49651157,13.1333704 C8.70340009,13.3386018 7.01388269,12.8359032 5.29430455,11.7954515 L6.37344398,19.4614037 L0,19.4614037 L2.19349451,9.19413069 C0.970166503,7.7523243 0.142267255,5.98547192 0.280637699,4.00570444 C0.679390598,-1.69954588 8.59048117,-0.4444635 10.1293521,2.43505693 Z"></path>
                        </g>
                        <path d="M3.04465085,12.7436032 C2.24472089,9.170953 -0.0341489893,6.73559707 0.313889106,5.13877522 C0.545914503,4.07422732 1.16433174,3.41222235 2.16914082,3.15276032 C2.68881857,1.04222914 4.36488592,0.144537964 7.19734287,0.459686802 C11.4460283,0.932410057 14.0391894,2.70371525 12.9193313,6.60135966 C11.8899183,6.60135966 10.6471969,6.22762307 8.92877144,6.86795423 C8.38352198,7.07112873 7.99354358,7.70119066 7.75883624,8.75814004 L6.98228656,8.75814004 C6.2286124,7.50383009 5.48548483,7.04290541 4.75290388,7.37536601 C4.02032293,7.7078266 3.85379537,8.51537471 4.2533212,9.79801034 L3.87079197,12.7436032 L3.04465085,12.7436032 Z" id="Hair" fill="#191847"></path>
                    </g>
                    <g id="Bottom/Skinny-Jeans-1" transform="translate(0.000000, 43.853185)">
                        <g id="8.Objects/Seat/Cube" transform="translate(0.655602, 11.196972)">
                            <g id="Seat" transform="translate(14.605809, 0.000000)">
                                <polygon id="Seat-Stuff" fill="#C5CFD6" points="7.33547326 0 27.8512048 0 30.5394191 33.0577269 0 33.0577269"></polygon>
                                <polygon id="Seat-Stuff" fill-opacity="0.1" fill="#000000" points="7.33547326 0 13.6452252 0 17.421749 33.0577269 0 33.0577269"></polygon>
                            </g>
                        </g>
                        <path d="M66.502527,5.53390697 L66.6137211,5.46948268 C68.8118938,4.27193945 72.3593241,5.94071013 72.3568478,7.79480283 C72.3493075,13.4371424 67.2200317,40.0294683 66.9522254,41.7105098 C66.6844191,43.3915512 63.815542,43.8355777 63.6484779,41.7160188 C63.3826508,38.3434428 62.8887768,26.6682871 63.3829178,21.2642901 C63.5868931,19.033587 63.8065639,16.9091421 64.0228248,15.0138461 C61.3314594,19.8931693 57.1688369,26.8794825 51.5351045,35.9726128 L48.4767662,34.5698979 C50.8783842,26.6264257 52.8476749,21.0185458 54.3846382,17.746258 C57.0162926,12.1433069 59.4838988,7.3451262 60.5224347,5.65500598 C62.1561998,2.99620548 65.0001387,3.92422454 66.502527,5.53390697 Z" id="Skin" fill="#EDDCCC"></path>
                        <path d="M53.4706935,32.8690727 L54.7965831,5.82099484 C55.7706966,1.14493433 64.0675162,3.32604267 64.0672326,5.83259537 C64.0665888,11.523246 60.6829179,31.177106 60.6827261,32.872541 L53.4706935,32.8690727 Z" id="LegLower" fill="#1E4679" transform="translate(58.768963, 17.972869) rotate(20.000000) translate(-58.768963, -17.972869) "></path>
                        <g id="5.Accessories/Shoe/Flat-Sneaker" transform="translate(55.228216, 35.457078) rotate(30.000000) translate(-55.228216, -35.457078) translate(47.128631, 30.125187)" fill="#E4E4E4">
                            <path d="M0.608347,7.05662664 C0.379822444,7.71167109 0.265560166,8.21252806 0.265560166,8.55919756 C0.265560166,9.03994388 0.345338212,9.74147231 0.504894304,10.6637829 C1.06042985,10.6637829 6.05312139,10.6637829 15.4829689,10.6637829 C15.872196,9.3720008 15.6475115,8.67460924 14.8089156,8.57160816 C13.9703197,8.46860709 13.2736838,8.37560536 12.719008,8.29260299 L5.88448018,5.23386833 C5.68283897,5.14362552 5.44622021,5.23393178 5.3559774,5.43557299 C5.35428023,5.4393652 5.35264225,5.44318362 5.35106405,5.44702686 L4.95620597,6.40858561 L4.95620597,6.40858561 C4.17988547,6.77220917 3.54904447,6.95402095 3.06368296,6.95402095 C2.7174521,6.95402095 2.25539948,6.83077202 1.6775251,6.58427414 L1.67750063,6.5843315 C1.27113307,6.4109915 0.801187235,6.59989768 0.627847242,7.00626525 C0.620782191,7.02282811 0.614278405,7.03962481 0.608347,7.05662664 Z" id="shoe"></path>
                        </g>
                        <g id="5.Accessories/Shoe/Flat-Sneaker" transform="translate(62.265560, 33.590916)" fill="#E4E4E4">
                            <path d="M0.608347,7.05662664 C0.379822444,7.71167109 0.265560166,8.21252806 0.265560166,8.55919756 C0.265560166,9.03994388 0.345338212,9.74147231 0.504894304,10.6637829 C1.06042985,10.6637829 6.05312139,10.6637829 15.4829689,10.6637829 C15.872196,9.3720008 15.6475115,8.67460924 14.8089156,8.57160816 C13.9703197,8.46860709 13.2736838,8.37560536 12.719008,8.29260299 L5.88448018,5.23386833 C5.68283897,5.14362552 5.44622021,5.23393178 5.3559774,5.43557299 C5.35428023,5.4393652 5.35264225,5.44318362 5.35106405,5.44702686 L4.95620597,6.40858561 L4.95620597,6.40858561 C4.17988547,6.77220917 3.54904447,6.95402095 3.06368296,6.95402095 C2.7174521,6.95402095 2.25539948,6.83077202 1.6775251,6.58427414 L1.67750063,6.5843315 C1.27113307,6.4109915 0.801187235,6.59989768 0.627847242,7.00626525 C0.620782191,7.02282811 0.614278405,7.03962481 0.608347,7.05662664 Z" id="shoe"></path>
                        </g>
                        <path d="M73.0925472,9.71284744 C73.0925472,16.795458 69.7420348,33.3164018 69.7399146,34.8759316 L62.5311203,34.8814904 C63.5862645,20.1400152 63.9604107,12.689873 63.6535589,12.531064 C63.1932813,12.2928505 44.7852847,14.3761204 39.264427,14.3761204 C31.3033229,14.3761204 28.0099735,9.33624777 27.7427386,0 L43.5133896,0 C46.7244358,0.344937901 63.473547,3.73639137 69.6938348,4.90225105 C72.3568465,5.40137554 73.0925472,7.76177056 73.0925472,9.71284744 Z" id="Leg-and-Butt" fill="#3A5B86"></path>
                    </g>
                    <g id="Body/Long-Sleeve-1" transform="translate(24.842324, 9.860755)">
                        <path d="M28.9536877,24.4398467 L37.4245978,30.684451 C39.7220831,31.3068102 41.6415577,32.0811302 43.1830218,33.0074109 C43.5471424,33.3404955 43.9872163,34.0150472 42.4771202,33.8984677 C40.9670241,33.7818883 39.3734069,33.7274435 39.165043,34.2445202 C38.956679,34.7615969 39.8705074,35.379964 39.4493132,36.0776359 C39.168517,36.5427505 37.8419232,35.3764928 35.4695317,32.578863 L27.0811085,29.0868465 L28.9536877,24.4398467 Z M45.5064371,1.4740283 C44.5048953,2.61458312 43.5025196,3.85949411 43.7884766,4.33773366 C44.0744336,4.81597321 45.116323,4.45545725 45.4178656,5.21301761 C45.618894,5.71805785 43.8927292,6.07977825 40.239371,6.29817879 L32.4130644,10.9220184 L29.8431516,6.62405062 L39.9088847,3.59062605 C41.7866555,2.12317079 43.5578242,1.05023639 45.2223908,0.371822852 C45.7065051,0.28034586 46.5079788,0.333473485 45.5064371,1.4740283 Z" id="Skin" fill="#EDDCCC"></path>
                        <path d="M12.7090219,10.163446 C19.3996812,17.3101728 27.5561079,21.9774173 38.6780276,26.1210179 L36.2138852,31.0722155 C24.7417053,29.9758372 18.6081936,29.1031509 13.7935797,21.9472372 C12.5852093,20.151248 10.421693,13.9735276 9.12606562,10.7652605 L12.7090219,10.163446 Z" id="Coat-Back" fill="#2260B1" transform="translate(23.902047, 20.617831) rotate(15.000000) translate(-23.902047, -20.617831) "></path>
                        <path d="M2.90041494,36.3917812 L23.3485477,36.3917812 C18.7167033,22.2103845 16.3505813,12.4771555 16.2501817,7.19209402 C16.2450633,6.92265648 15.7493785,6.44786948 15.5300767,6.51004706 C13.9263465,6.96474503 12.2102285,6.79472934 10.3817228,6 C5.53410389,13.8267919 3.85771321,23.4631574 2.90041494,36.3917812 Z" id="Shirt" fill="#F2F2F2"></path>
                        <path d="M38.4649429,3.60064885 L39.5477178,9.03210812 C31.2585211,14.3840739 22.8650119,18.5299233 15.5102659,17.9409234 C18.7045546,31.6932283 18.5574255,42.9515982 11.5065487,42.9515982 L11.5065487,42.9515982 L0.603618744,42.9515982 C-1.12801821,31.2688858 3.42306256,15.0705111 7.64224534,6.90018171 C7.80336322,6.58818144 8.14639936,6 8.9543902,6 L8.9543902,6 L12.12246,6 C12.123784,6.00400221 12.1251079,6.00800442 12.1264316,6.01200663 C17.9868998,6.06069245 27.4970177,7.1355416 38.4649429,3.60064885 Z" id="Coat-Front" fill="#337CDB" fill-rule="nonzero"></path>
                    </g>
                </g>
            </g>
        </g>
    </g>
</svg>