<?xml version="1.0" encoding="UTF-8"?>
<svg width="16px" height="16px" viewBox="0 0 16 16" version="1.1" xmlns="http://www.w3.org/2000/svg" xmlns:xlink="http://www.w3.org/1999/xlink">
    <!-- Generator: Sketch 60.1 (88133) - https://sketch.com -->
    <title>excel</title>
    <desc>Created with Sketch.</desc>
    <g id="1.0" stroke="none" stroke-width="1" fill="none" fill-rule="evenodd">
        <g id="切图" transform="translate(-12.000000, -192.000000)" fill-rule="nonzero">
            <g id="excel" transform="translate(12.000000, 192.000000)">
                <rect id="Rectangle" fill="#000000" opacity="0" x="0" y="0" width="16" height="16"></rect>
                <path d="M14.0914283,14.4761919 C14.0914283,14.6782614 14.0111437,14.8720547 13.868259,15.0149394 C13.7253743,15.1578242 13.531581,15.238096 13.3295115,15.238096 L2.66285497,15.238096 C2.46078545,15.238096 2.26699218,15.1578242 2.12410746,15.0149394 C1.98122273,14.8720547 1.90095094,14.6782614 1.90095094,14.4761919 L1.90095094,0.761919281 C1.90095094,0.559849766 1.98122273,0.36605649 2.12410746,0.223171764 C2.26699218,0.0802870379 2.46078545,2.4829687e-06 2.66285497,2.4829687e-06 L9.20761064,2.4829687e-06 C9.41012701,-0.00115562685 9.60477686,0.078349246 9.7485625,0.220967406 L13.8704633,4.34286825 C14.0130815,4.48665389 14.0925864,4.68130374 14.0914283,4.88382011 L14.0914283,14.4761919 L14.0914283,14.4761919 Z" id="Path" fill="#FFFFFF"></path>
                <path d="M14.0914155,14.4761919 L14.0914155,15.238096 C14.0914155,15.4401655 14.0111437,15.6339588 13.868259,15.7768435 C13.7253743,15.9197282 13.531581,16 13.3295115,16 L2.66285497,16 C2.24206699,16 1.90095094,15.6588839 1.90095094,15.238096 L1.90095094,14.4761919 C1.90095094,14.6782614 1.98122273,14.8720547 2.12410746,15.0149394 C2.26699218,15.1578242 2.46078545,15.238096 2.66285497,15.238096 L13.3295115,15.238096 C13.531581,15.238096 13.7253743,15.1578242 13.868259,15.0149394 C14.0111437,14.8720547 14.0914155,14.6782614 14.0914155,14.4761919 L14.0914155,14.4761919 Z" id="Path" fill="#C1C7D0"></path>
                <path d="M0.377142859,8.38095964 L15.6152236,8.38095964 L15.6152236,12.1904798 C15.6152236,12.3925493 15.5349518,12.5863426 15.3920671,12.7292273 C15.2491823,12.8721121 15.0553891,12.9523839 14.8533195,12.9523839 L1.13904689,12.9523839 C0.936977375,12.9523839 0.743184101,12.8721121 0.600299378,12.7292273 C0.457414655,12.5863426 0.377142859,12.3925493 0.377142859,12.1904798 L0.377142859,8.38095964 L0.377142859,8.38095964 Z" id="Path" fill="#43A34A"></path>
                <path d="M1.90095094,8.38095964 L1.90095094,6.85715156 L0.377142859,8.38095964 L1.90095094,8.38095964 Z M14.0914155,8.38095964 L14.1066536,6.85715156 L15.6228426,8.38095964 L14.0914155,8.38095964 Z" id="Shape" fill="#417505"></path>
                <path d="M5.128,11.912 L5.128,11.512 L3.468,11.512 L3.468,10.648 L4.964,10.648 L4.964,10.248 L3.468,10.248 L3.468,9.456 L5.06,9.456 L5.06,9.056 L3,9.056 L3,11.912 L5.128,11.912 Z M5.844,11.912 L6.364,11.148 L6.88,11.912 L7.416,11.912 L6.612,10.812 L7.324,9.844 L6.792,9.844 L6.364,10.476 L5.932,9.844 L5.4,9.844 L6.112,10.812 L5.308,11.912 L5.844,11.912 Z M8.596,11.968 C8.864,11.968 9.08,11.9 9.24,11.768 C9.404,11.632 9.512,11.424 9.56,11.144 L9.108,11.144 C9.072,11.444 8.904,11.596 8.6,11.596 C8.424,11.596 8.292,11.532 8.204,11.408 C8.108,11.28 8.064,11.1 8.064,10.872 C8.064,10.648 8.112,10.472 8.208,10.348 C8.304,10.22 8.436,10.16 8.604,10.16 C8.74,10.16 8.852,10.192 8.936,10.256 C9.016,10.32 9.072,10.416 9.1,10.548 L9.552,10.548 C9.512,10.288 9.408,10.096 9.244,9.968 C9.084,9.848 8.872,9.788 8.604,9.788 C8.28,9.788 8.028,9.896 7.848,10.112 C7.68,10.308 7.596,10.564 7.596,10.876 C7.596,11.196 7.68,11.456 7.852,11.656 C8.028,11.864 8.276,11.968 8.596,11.968 Z M10.82,11.968 C11.096,11.968 11.324,11.888 11.508,11.732 C11.652,11.604 11.748,11.44 11.796,11.248 L11.34,11.248 C11.284,11.364 11.224,11.448 11.156,11.5 C11.068,11.564 10.956,11.596 10.816,11.596 C10.652,11.596 10.524,11.544 10.436,11.444 C10.348,11.344 10.296,11.196 10.28,11.004 L11.828,11.004 C11.828,10.632 11.744,10.34 11.58,10.132 C11.4,9.9 11.14,9.788 10.8,9.788 C10.492,9.788 10.248,9.892 10.072,10.104 C9.888,10.312 9.8,10.568 9.8,10.876 C9.8,11.22 9.896,11.488 10.088,11.684 C10.268,11.872 10.512,11.968 10.82,11.968 Z M11.352,10.66 L10.288,10.66 C10.316,10.496 10.372,10.372 10.456,10.288 C10.544,10.2 10.66,10.16 10.812,10.16 C11.132,10.16 11.312,10.324 11.352,10.66 Z M12.684,11.912 L12.684,9 L12.228,9 L12.228,11.912 L12.684,11.912 Z" id="Excel" fill="#FFFFFF"></path>
                <path d="M14.0914155,4.88382011 L14.0914155,4.99048667 L9.96951467,4.99048667 C9.54872669,4.99048667 9.20761064,4.64937062 9.20761064,4.22858264 L9.20761064,2.4829687e-06 C9.41012701,-0.00115562685 9.60477686,0.078349246 9.7485625,0.220967406 L13.8780824,4.34286825 C14.0179136,4.48789064 14.0946176,4.68239023 14.0914155,4.88382011 L14.0914155,4.88382011 Z" id="Path" fill="#C1C7D0"></path>
            </g>
        </g>
    </g>
</svg>