<?xml version="1.0" encoding="UTF-8"?>
<svg width="14px" height="16px" viewBox="0 0 14 16" version="1.1" xmlns="http://www.w3.org/2000/svg" xmlns:xlink="http://www.w3.org/1999/xlink">
    <!-- Generator: Sketch 60.1 (88133) - https://sketch.com -->
    <title>热门</title>
    <desc>Created with Sketch.</desc>
    <g id="1.0" stroke="none" stroke-width="1" fill="none" fill-rule="evenodd">
        <g id="切图" transform="translate(-13.000000, -14.000000)" fill-rule="nonzero">
            <g id="热门" transform="translate(12.000000, 14.000000)">
                <rect id="Rectangle" fill="#000000" opacity="0" x="0" y="0" width="16" height="16"></rect>
                <path d="M7.55082622,0.0241548437 C7.47450922,-0.014875276 7.3823226,-0.00500461469 7.31599902,0.0492984046 C7.24967544,0.103601424 7.22180657,0.192027254 7.24500858,0.27454575 C7.50898658,1.22628997 7.5870585,3.52919609 3.94161719,6.6425837 C0.638872812,9.46266242 1.29493578,14.5791772 5.66933595,15.3085674 C4.6587143,13.1570604 5.3281487,11.038335 5.3281487,11.038335 C5.3281487,11.038335 5.96458586,15.9661401 9.66006222,15.8337197 C11.7089111,15.6452256 12.6520286,14.5491993 13.240156,13.4637408 C15.1100002,10.0100286 13.6779627,5.93346633 12.5068838,4.57303067 C12.4479154,4.50406151 12.3520837,4.47938023 12.2671357,4.511284 C12.1821877,4.54318776 12.1262959,4.6248516 12.1273076,4.71558742 C12.1359343,5.40054995 11.9916522,6.61217447 10.9883633,7.40820617 C10.6721936,7.65902841 10.2151924,7.37520892 10.2982247,6.98032027 C10.6564498,5.29012778 10.9307799,1.75144228 7.55082622,0.0241548437 Z" id="Path" fill="#2674FD"></path>
                <path d="M7.6252318,6.7195773 C7.55421491,6.67764095 7.46549984,6.67987807 7.39668688,6.7253405 C7.32787393,6.77080292 7.29101393,6.85152907 7.30172934,6.93330458 C7.389075,7.57427077 7.21114866,8.84822344 5.1866703,10.455168 C3.17815141,12.049388 3.45701052,15.0819 6.0228163,15.6055427 C5.47286213,14.3143365 5.91174713,13.0783415 5.91174713,13.0783415 C5.91174713,13.0783415 6.18305784,16 8.36648375,16 C9.57918661,15.9320645 10.1591187,15.3053324 10.5289898,14.6773063 C11.785042,12.5456408 10.3441621,8.32695314 7.6252318,6.7195773 L7.6252318,6.7195773 Z" id="Path" fill="#FFE41F"></path>
            </g>
        </g>
    </g>
</svg>