<?xml version="1.0" encoding="UTF-8"?>
<svg width="16px" height="16px" viewBox="0 0 16 16" version="1.1" xmlns="http://www.w3.org/2000/svg" xmlns:xlink="http://www.w3.org/1999/xlink">
    <!-- Generator: Sketch 60.1 (88133) - https://sketch.com -->
    <title>Rectangle</title>
    <desc>Created with Sketch.</desc>
    <g id="1.0" stroke="none" stroke-width="1" fill="none" fill-rule="evenodd">
        <g id="切图" transform="translate(-12.000000, -58.000000)" fill-rule="nonzero">
            <g id="accessory" transform="translate(12.000000, 58.000000)">
                <rect id="Rectangle" fill="#000000" opacity="0" x="0" y="0" width="16" height="16"></rect>
                <path d="M13.1675,4.061 C12.7000356,3.590784 12.0640421,3.32688179 11.401,3.328 L11.3985,3.328 C10.7374401,3.32624571 10.1030828,3.58870115 9.6365,4.057 L9.635,4.058 L5.033,8.66 C4.60489629,9.08956228 4.47769232,9.73470283 4.71069836,10.2946178 C4.9437044,10.8545327 5.49103845,11.2189673 6.0975,11.218 C6.4805,11.218 6.8635,11.073 7.1545,10.781 L11.756,6.1795 C11.8822934,6.05320661 11.9316166,5.86912999 11.88539,5.69661002 C11.8391634,5.52409004 11.70441,5.3893366 11.53189,5.34311001 C11.35937,5.29688343 11.1752934,5.34620661 11.049,5.4725 L6.4475,10.074 C6.35376664,10.1671303 6.22686438,10.2191919 6.094732,10.218723 C5.96259961,10.2182541 5.83607004,10.1652931 5.743,10.0715 C5.64789726,9.97916829 5.59398126,9.85243004 5.59341682,9.71988059 C5.59285238,9.58733114 5.64568705,9.4601383 5.74,9.367 L10.3415,4.7655 C10.6212706,4.4843635 11.0018793,4.3268268 11.3985,4.328 L11.4,4.328 C11.7980289,4.3273887 12.1798131,4.48579043 12.4605,4.768 C12.7435,5.051 12.8995,5.428 12.9,5.828 C12.901673,6.22520809 12.7443052,6.60656384 12.463,6.887 L11.2205,8.1295 L11.2125,8.137 L7.7685,11.582 C6.79117921,12.557612 5.20864769,12.5582829 4.2305,11.5835 C3.76076578,11.1155057 3.49773032,10.4790715 3.5,9.816 C3.5,9.147 3.7605,8.5185 4.233,8.046 L8.925,3.3535 C9.05129339,3.22720661 9.10061657,3.04312999 9.05438999,2.87061002 C9.0081634,2.69809004 8.87340996,2.5633366 8.70088998,2.51711001 C8.52837001,2.47088343 8.34429339,2.52020661 8.218,2.6465 L3.526,7.3385 C2.86696881,7.99424693 2.49754052,8.88631183 2.4999878,9.816 C2.4999878,10.7515 2.8635,11.631 3.5235,12.291 C4.17928232,12.9474147 5.06963839,13.3153974 5.9975,13.3135073 C6.92693201,13.3149148 7.81864851,12.9460652 8.4755,12.2885 L13.342,7.4225 C13.3906973,7.37323529 13.4285125,7.31429815 13.453,7.2495 C13.742,6.8345 13.9005,6.3445 13.9000029,5.827 C13.9010059,5.16422538 13.6373152,4.52848782 13.1675,4.061" id="Path" fill="#95A1B7"></path>
            </g>
        </g>
    </g>
</svg>