<?xml version="1.0" encoding="UTF-8"?>
<svg width="20px" height="20px" viewBox="0 0 20 20" version="1.1" xmlns="http://www.w3.org/2000/svg" xmlns:xlink="http://www.w3.org/1999/xlink">
    <!-- Generator: Sketch 60.1 (88133) - https://sketch.com -->
    <title>Rectangle</title>
    <desc>Created with Sketch.</desc>
    <g id="1.0" stroke="none" stroke-width="1" fill="none" fill-rule="evenodd">
        <g id="切图" transform="translate(-626.000000, -17.000000)" fill-rule="nonzero">
            <g id="message" transform="translate(626.000000, 17.000000)">
                <rect id="Rectangle" fill="#000000" opacity="0" x="0" y="0" width="20" height="20"></rect>
                <path d="M15.625,13.75 L15.625,14.099375 L12.02875,14.099375 C11.449375,14.099375 10.83375,14.4675 10.565625,14.975 L10,16.04375 L9.434375,14.974375 C9.16625,14.4675 8.550625,14.099375 7.97125,14.099375 L4.375,14.099375 L4.375,5 L15.625,5 L15.625,13.75 Z M15.72875,3.75 L4.27125,3.75 C3.639375,3.75 3.125,4.286875 3.125,4.94625 L3.125,14.153125 C3.125,14.8125 3.640625,15.349375 4.27375,15.349375 L7.97125,15.349375 C8.086875,15.349375 8.278125,15.46125 8.33,15.559375 L9.073125,16.965 L9.13,17.05375 C9.348125,17.3375 9.665,17.5 10,17.5 C10.335,17.5 10.651875,17.3375 10.87,17.05375 L11.67,15.559375 C11.718125,15.469375 11.90375,15.349375 12.02875,15.349375 L15.729375,15.349375 C16.36125,15.349375 16.875,14.8125 16.875,14.153125 L16.875,4.94625 C16.875,4.286875 16.360625,3.75 15.72875,3.75 Z M6.5625,8.75 C6.32125,8.75 6.10375,8.84375 5.9375,8.993125 C5.73914099,9.16947463 5.62545509,9.4220847 5.625,9.6875 C5.625,9.964375 5.746875,10.21 5.9375,10.381875 C6.1084112,10.5377212 6.33120299,10.6243872 6.5625,10.625 C7.08026695,10.625 7.5,10.205267 7.5,9.6875 C7.5,9.16973305 7.08026695,8.75 6.5625,8.75 M13.4375,8.75 C12.919733,8.75 12.5,9.16973305 12.5,9.6875 C12.5,10.205267 12.919733,10.625 13.4375,10.625 C13.67875,10.625 13.89625,10.53125 14.0625,10.381875 C14.253125,10.21 14.375,9.964375 14.375,9.6875 C14.3745449,9.4220847 14.260859,9.16947463 14.0625,8.993125 C13.8915888,8.83727878 13.668797,8.75061278 13.4375,8.75 M10,8.75 C9.75875,8.75 9.54125,8.84375 9.375,8.993125 C9.17664099,9.16947463 9.06295509,9.4220847 9.0625,9.6875 C9.0625,9.964375 9.184375,10.21 9.375,10.381875 C9.5459112,10.5377212 9.76870299,10.6243872 10,10.625 C10.24125,10.625 10.45875,10.53125 10.625,10.381875 C10.815625,10.21 10.9375,9.964375 10.9375,9.6875 C10.9370449,9.4220847 10.823359,9.16947463 10.625,8.993125 C10.4540888,8.83727878 10.231297,8.75061278 10,8.75" id="Shape" fill="#95A1B7"></path>
            </g>
        </g>
    </g>
</svg>