<?xml version="1.0" encoding="UTF-8"?>
<svg width="20px" height="20px" viewBox="0 0 20 20" version="1.1" xmlns="http://www.w3.org/2000/svg" xmlns:xlink="http://www.w3.org/1999/xlink">
    <!-- Generator: Sketch 60.1 (88133) - https://sketch.com -->
    <title>Rectangle</title>
    <desc>Created with Sketch.</desc>
    <g id="1.0" stroke="none" stroke-width="1" fill="none" fill-rule="evenodd">
        <g id="切图" transform="translate(-578.000000, -109.000000)">
            <g id="拖动" transform="translate(578.000000, 109.000000)">
                <rect id="Rectangle" fill="#000000" opacity="0" x="0" y="0" width="20" height="20"></rect>
                <path d="M9.33139913,17.6614778 L9.33139913,2.33666239 C9.33139913,1.96842047 9.63268798,1.66713162 10.0009299,1.66713162 C10.3691718,1.66713162 10.6704607,1.96842047 10.6704607,2.33666239 L10.6704607,17.6614778 C10.6704607,18.0297197 10.3691718,18.3310086 10.0009299,18.3310086 C9.63268798,18.3310086 9.33139913,18.0297197 9.33139913,17.6614778 Z M2.3385222,9.32953933 L17.6633376,9.32953933 C18.0315795,9.32953933 18.3328684,9.63082817 18.3328684,9.9990701 C18.3328684,10.367312 18.0315795,10.6686009 17.6633376,10.6686009 L2.3385222,10.6686009 C1.97028027,10.6686009 1.66899143,10.367312 1.66899143,9.9990701 C1.66899143,9.63082817 1.97028027,9.32953933 2.3385222,9.32953933 Z M13.3039484,15.3106809 L10.4826201,18.1320092 C10.2166676,18.3979617 9.78705202,18.3979617 9.52109952,18.1320092 L6.68489278,15.2958024 C6.41894028,15.0298499 6.41336086,14.5909353 6.68489278,14.3287024 C6.94712567,14.0776284 7.36372259,14.0794882 7.62223586,14.3380015 L9.80936971,16.5251353 C9.91723856,16.6330041 10.0902007,16.6330041 10.1962097,16.5251353 L12.3461474,14.3751976 C12.6120999,14.1092451 13.0510145,14.1036657 13.3132474,14.3751976 C13.5643214,14.6374305 13.5624616,15.0540274 13.3039484,15.3106809 L13.3039484,15.3106809 Z M6.67559374,4.68745932 L9.49692202,1.86613104 C9.76287452,1.60017854 10.1924901,1.60017854 10.4584426,1.86613104 L13.2946493,4.70233778 C13.5606018,4.96829028 13.5661813,5.4072049 13.2946493,5.66943778 C13.0324164,5.92051182 12.6158195,5.91865201 12.3573063,5.66013874 L10.1701724,3.47300489 C10.0623036,3.36513604 9.88934144,3.36513604 9.7833324,3.47300489 L7.6315349,5.62294259 C7.3655824,5.88889509 6.92666778,5.89447451 6.6644349,5.62294259 C6.41522067,5.3607097 6.41708047,4.94411278 6.67559374,4.68745932 L6.67559374,4.68745932 Z M4.68559951,13.3113876 L1.86613104,10.4900593 C1.60017854,10.2241068 1.60017854,9.79449125 1.86613104,9.52853875 L4.70233778,6.69233201 C4.96829028,6.42637951 5.4072049,6.42080009 5.66943778,6.69233201 C5.92051182,6.9545649 5.91865201,7.37116182 5.66013874,7.62967509 L3.47300489,9.81680894 C3.36513604,9.92467779 3.36513604,10.0976399 3.47300489,10.2036489 L5.62294259,12.3535866 C5.88889509,12.6195391 5.89447451,13.0584538 5.62294259,13.3206866 C5.3607097,13.5717607 4.94411278,13.5699009 4.68559951,13.3113876 Z M15.3125407,6.68303297 L18.133869,9.50436125 C18.3998215,9.77031375 18.3998215,10.1999293 18.133869,10.4658818 L15.2976622,13.3020886 C15.0317097,13.5680411 14.5927951,13.5736205 14.3305622,13.3020886 C14.0794882,13.0398557 14.081348,12.6232588 14.3398613,12.3647455 L16.5269951,10.1776116 C16.634864,10.0697428 16.634864,9.89678067 16.5269951,9.79077163 L14.3770574,7.63897413 C14.1111049,7.37302163 14.1055255,6.93410701 14.3770574,6.67187413 C14.6392903,6.4226599 15.0558872,6.4245197 15.3125407,6.68303297 L15.3125407,6.68303297 Z" id="Shape" fill="#95A1B7" fill-rule="nonzero"></path>
            </g>
        </g>
    </g>
</svg>