<?xml version="1.0" encoding="UTF-8"?>
<svg width="120px" height="64px" viewBox="0 0 120 64" version="1.1" xmlns="http://www.w3.org/2000/svg" xmlns:xlink="http://www.w3.org/1999/xlink">
    <!-- Generator: Sketch 60.1 (88133) - https://sketch.com -->
    <title>暂无</title>
    <desc>Created with Sketch.</desc>
    <defs>
        <linearGradient x1="50%" y1="-66.604839%" x2="50%" y2="100%" id="linearGradient-1">
            <stop stop-color="#C6D4DD" offset="0%"></stop>
            <stop stop-color="#FFFFFF" stop-opacity="0" offset="100%"></stop>
        </linearGradient>
        <linearGradient x1="31.1839945%" y1="-15.3202383%" x2="31.1839945%" y2="100%" id="linearGradient-2">
            <stop stop-color="#EBF0F3" offset="0%"></stop>
            <stop stop-color="#C0CFD8" offset="100%"></stop>
        </linearGradient>
        <linearGradient x1="50.1539476%" y1="-7.16742058%" x2="52.8562435%" y2="169.677737%" id="linearGradient-3">
            <stop stop-color="#C9D5DD" offset="0%"></stop>
            <stop stop-color="#9BACB7" offset="100%"></stop>
        </linearGradient>
        <linearGradient x1="45.7762781%" y1="46.4155151%" x2="55.5874043%" y2="66.3451676%" id="linearGradient-4">
            <stop stop-color="#C9D5DD" offset="0%"></stop>
            <stop stop-color="#9BACB7" offset="100%"></stop>
        </linearGradient>
        <linearGradient x1="47.0988304%" y1="39.3426161%" x2="50%" y2="56.7385284%" id="linearGradient-5">
            <stop stop-color="#EBF0F3" offset="0%"></stop>
            <stop stop-color="#C9D7E1" offset="100%"></stop>
        </linearGradient>
        <linearGradient x1="48.0500388%" y1="41.7355979%" x2="56.6294901%" y2="68.0518565%" id="linearGradient-6">
            <stop stop-color="#DAE4EA" offset="0%"></stop>
            <stop stop-color="#9BACB7" offset="100%"></stop>
        </linearGradient>
        <linearGradient x1="47.0988304%" y1="48.160743%" x2="50%" y2="51.1629388%" id="linearGradient-7">
            <stop stop-color="#C9D5DD" offset="0%"></stop>
            <stop stop-color="#9BACB7" offset="100%"></stop>
        </linearGradient>
        <linearGradient x1="31.1839945%" y1="-15.3202383%" x2="31.1839945%" y2="100%" id="linearGradient-8">
            <stop stop-color="#FCFEFF" offset="0%"></stop>
            <stop stop-color="#C0CFD8" offset="100%"></stop>
        </linearGradient>
        <linearGradient x1="10.3030648%" y1="10.4635327%" x2="71.3904545%" y2="100%" id="linearGradient-9">
            <stop stop-color="#C9D5DD" offset="0%"></stop>
            <stop stop-color="#9BACB7" offset="100%"></stop>
        </linearGradient>
        <linearGradient x1="26.1779653%" y1="-39.4112531%" x2="94.9070139%" y2="144.292916%" id="linearGradient-10">
            <stop stop-color="#D2DEE9" offset="0%"></stop>
            <stop stop-color="#6A7B8D" offset="100%"></stop>
        </linearGradient>
        <linearGradient x1="43.4645985%" y1="-37.3847629%" x2="52.7529527%" y2="121.765192%" id="linearGradient-11">
            <stop stop-color="#667B8D" offset="0%"></stop>
            <stop stop-color="#364555" offset="100%"></stop>
        </linearGradient>
        <linearGradient x1="8.34170791%" y1="37.2269496%" x2="50%" y2="57.7586547%" id="linearGradient-12">
            <stop stop-color="#C9D5DD" offset="0%"></stop>
            <stop stop-color="#9BACB7" offset="100%"></stop>
        </linearGradient>
        <path d="M0.649188828,2.69426897 C2.21945258,1.28140887 4.87158659,0.403332408 8.60559087,0.0600395729 C10.2334901,-0.0896244561 11.1516804,0.192778034 11.360162,0.907247042 C13.5871572,0.878858144 16.0403919,1.05651457 18.719866,1.44021632 C20.4182285,1.47009993 22.7641592,2.61471968 25.7576581,4.87407556 L25.7576581,5.4127069 C25.7576581,6.24219943 25.2030156,6.9399382 24.4036527,7.11604186 L12.0776596,9.83151997 C11.0066605,10.0674664 9.86424629,9.872231 8.89091749,9.28691451 L0.923222863,4.49547308 C0.648570918,4.33030966 0.535175652,3.99353875 0.649188828,3.7156332 L0.649188828,2.69426897 Z" id="path-13"></path>
        <linearGradient x1="31.1839945%" y1="-15.3202383%" x2="31.1839945%" y2="100%" id="linearGradient-15">
            <stop stop-color="#EBF0F3" offset="0%"></stop>
            <stop stop-color="#C0CFD8" offset="100%"></stop>
        </linearGradient>
        <linearGradient x1="50%" y1="0%" x2="50%" y2="154.066129%" id="linearGradient-16">
            <stop stop-color="#E8EEF3" offset="0%"></stop>
            <stop stop-color="#ABBAC4" offset="100%"></stop>
        </linearGradient>
        <linearGradient x1="37.4720239%" y1="43.8614101%" x2="60.2946227%" y2="54.8997967%" id="linearGradient-17">
            <stop stop-color="#D1DBE5" offset="0%"></stop>
            <stop stop-color="#D1DBE5" stop-opacity="0.18543365" offset="100%"></stop>
        </linearGradient>
        <linearGradient x1="42.1569691%" y1="-35.1427837%" x2="60.451203%" y2="136.769207%" id="linearGradient-18">
            <stop stop-color="#DBE3EB" offset="0%"></stop>
            <stop stop-color="#E9EFF6" offset="100%"></stop>
        </linearGradient>
        <linearGradient x1="23.9712422%" y1="18.3606701%" x2="60.964275%" y2="75.9839644%" id="linearGradient-19">
            <stop stop-color="#667B8D" offset="0%"></stop>
            <stop stop-color="#364555" offset="100%"></stop>
        </linearGradient>
        <linearGradient x1="31.1839945%" y1="-15.3202383%" x2="31.1839945%" y2="100%" id="linearGradient-20">
            <stop stop-color="#EBF0F3" offset="0%"></stop>
            <stop stop-color="#C0CFD8" offset="100%"></stop>
        </linearGradient>
        <linearGradient x1="50%" y1="-16.9410674%" x2="50%" y2="100%" id="linearGradient-21">
            <stop stop-color="#E3E9EE" offset="0%"></stop>
            <stop stop-color="#9BACB7" offset="100%"></stop>
        </linearGradient>
    </defs>
    <g id="1.0" stroke="none" stroke-width="1" fill="none" fill-rule="evenodd">
        <g id="切图" transform="translate(-205.000000, -387.000000)">
            <g id="暂无" transform="translate(205.000000, 387.000000)">
                <path d="M120,64.3636364 C120,50.5714286 90,36.7792208 60,36.7792208 C30,36.7792208 -5.68434189e-14,50.5714286 -5.68434189e-14,64.3636364 C18.9557721,63.6735513 102.346237,64.243634 120,64.3636364 Z" id="椭圆形" fill="url(#linearGradient-1)"></path>
                <g id="分组-10" transform="translate(41.632653, 23.906494)">
                    <polygon id="矩形" fill="url(#linearGradient-2)" points="0 0 1.83673469 0.612987013 1.83673469 22.0675325 0 21.4545455"></polygon>
                    <polygon id="矩形" fill="url(#linearGradient-3)" points="3.06122449 0 1.83673469 0.612987013 1.83673469 22.0675325 3.06122449 21.4545455"></polygon>
                </g>
                <g id="分组-10-copy" transform="translate(58.775510, 33.714286)">
                    <path d="M9.18367347,11.6558018 C12.6174777,11.5642711 15.6111188,12.17446 17.1867224,13.1544095 L18.3673469,13.1217135 L18.3673469,14.6735812 L18.363,14.6727532 L18.3673469,14.7733838 C18.3673469,16.5916877 14.4252113,18.1779674 9.49939472,18.3701963 L9.18367347,18.3805618 C4.11167067,18.51576 0,17.119971 0,15.2629798 C0,15.238967 0.000687519248,15.2149946 0.00205574386,15.1910654 L0,15.1908704 L0,13.6390027 L1.14179396,13.6075428 C2.70670306,12.5299063 5.72144857,11.7480901 9.18367347,11.6558018 Z" id="合并形状" fill="url(#linearGradient-4)"></path>
                    <path d="M9.18367347,17.1545878 C14.2556763,17.0193896 18.3673469,15.404401 18.3673469,13.5474098 C18.3673469,11.6904186 14.2556763,10.2946296 9.18367347,10.4298278 C4.11167067,10.565026 0,12.1800146 0,14.0370058 C0,15.893997 4.11167067,17.289786 9.18367347,17.1545878 Z" id="椭圆形" fill="url(#linearGradient-5)"></path>
                    <rect id="矩形" fill="url(#linearGradient-6)" x="7.95918367" y="0" width="2.44897959" height="14.0987013" rx="1.2244898"></rect>
                </g>
                <polygon id="合并形状" fill="url(#linearGradient-7)" points="63.1070784 19.6155844 67.9344255 20.6663081 81.9521918 20.8554061 81.9521918 23.7174247 82.1804174 23.7671005 81.9521918 23.7914258 81.9521918 23.8052555 81.8370155 23.8037018 42.5818766 27.9876856 27.4072108 23.0694502 27.2843753 23.0677931 27.2843753 20.1179438 54.0477305 20.4789782"></polygon>
                <polygon id="路径-28" fill="url(#linearGradient-8)" points="27.1157102 20.1689637 42.4598111 25.2260295 82.1789776 20.9211541 63.7505415 15.9345368"></polygon>
                <path d="M41.6326531,15.3446099 L41.6326531,20.02341 C41.6326531,20.4424109 41.1940749,20.7887193 40.6530612,20.7969113 L37.7142857,20.8414105 C37.1732721,20.8496026 36.7346939,20.5165762 36.7346939,20.0975752 L36.7346939,15.3446099 L41.6326531,15.3446099 Z" id="矩形" fill="url(#linearGradient-9)"></path>
                <path d="M39.1046,15.9376623 C40.5008051,15.9376623 41.6326531,15.6632187 41.6326531,15.3246753 C41.6326531,14.9861319 40.5008051,14.7116883 39.1046,14.7116883 C37.7083948,14.7116883 36.7346939,14.9861319 36.7346939,15.3246753 C36.7346939,15.6632187 37.7083948,15.9376623 39.1046,15.9376623 Z" id="椭圆形" fill="#A1B1BC"></path>
                <path d="M39.0950577,15.679334 C37.5214818,15.0722251 36.7346939,13.9323605 36.7346939,12.2597403 C38.3082697,12.2594792 39.0950577,13.3993438 39.0950577,15.679334 Z" id="路径-8" fill="url(#linearGradient-10)"></path>
                <path d="M40.4081633,11.0337662 C40.6719853,11.0337662 40.8858553,11.2476363 40.8858553,11.5114583 C40.8858553,11.5506237 40.8810387,11.5896405 40.8715139,11.6276301 L39.7959184,15.9176366 L39.7959184,15.9176366 C39.5006601,15.9269714 39.2828051,15.9316387 39.1423533,15.9316387 C39.0019015,15.9316387 38.8098401,15.9269714 38.566169,15.9176366 L39.6464226,11.627479 C39.7343147,11.2784212 40.04821,11.0337662 40.4081633,11.0337662 Z" id="矩形" fill="url(#linearGradient-11)"></path>
                <g id="路径-31" transform="translate(53.877551, 31.875325)">
                    <mask id="mask-14" fill="white">
                        <use xlink:href="#path-13"></use>
                    </mask>
                    <use id="Mask" fill="url(#linearGradient-12)" xlink:href="#path-13"></use>
                    <path d="M8.53402785,6.8126479 C4.05913507,3.94457521 1.36164771,2.6953376 0.441565762,3.06493506 C-0.478516183,3.43453253 0.870227499,2.36374022 4.48779681,-0.147441893 L9.04740101,-0.147441893 L9.04740101,1.83896104 L8.53402785,6.8126479 Z" fill="url(#linearGradient-15)" mask="url(#mask-14)"></path>
                </g>
                <path d="M58.0474248,20.8418619 C60.3503825,20.8567774 62.2172986,20.3199816 62.2172986,19.6428949 C62.2172986,18.9658081 60.3503825,18.4048294 58.0474248,18.3899138 C55.7444671,18.3749983 53.877551,18.9117941 53.877551,19.5888809 C53.877551,20.2659676 55.7444671,20.8269463 58.0474248,20.8418619 Z" id="椭圆形" fill="url(#linearGradient-16)"></path>
                <path d="M58.0474248,20.2288749 C60.3503825,20.2437904 62.2172986,19.7069946 62.2172986,19.0299079 C62.2172986,18.3528211 60.3503825,17.7918424 58.0474248,17.7769268 C55.7444671,17.7620113 53.877551,18.2988071 53.877551,18.9758939 C53.877551,19.6529806 55.7444671,20.2139593 58.0474248,20.2288749 Z" id="椭圆形" fill="#E9EFF6"></path>
                <path d="M56.9518087,19.0031489 L58.6689707,20.2080687 C59.8105182,20.2080687 60.8411685,20.0072488 61.7609214,19.6056088 C60.727158,18.780388 59.9256392,18.4269426 59.3563651,18.5452725 L56.9518087,19.0031489 Z" id="路径-30" fill="url(#linearGradient-17)"></path>
                <polygon id="矩形" fill="#CDD8E3" points="56.3265306 13.1192981 59.3877551 12.6961535 59.3877551 18.2130366 56.981898 18.9436754 56.3265306 18.6361812"></polygon>
                <polygon id="矩形" fill="url(#linearGradient-18)" points="56.9387755 13.7702536 60 13.347109 60 18.5800043 56.9387755 19.0031489"></polygon>
                <path d="M47.0783001,0.594101819 L67.1346834,0.375704594 C67.470932,0.360860004 67.7724185,0.623532223 67.8080723,0.962399415 C67.8103461,0.984010319 67.8114854,1.00565615 67.8114854,1.0272464 L67.8114854,14.2328914 C67.8114854,14.546414 67.575195,14.7947488 67.2637976,14.8084962 L47.2074142,16.2528675 C46.8711657,16.2677121 46.5696792,16.0050398 46.5340253,15.6661727 C46.5317515,15.6445618 46.5306122,15.6229159 46.5306122,15.6013257 L46.5306122,1.16970667 C46.5306122,0.85618407 46.7669027,0.607849288 47.0783001,0.594101819 Z" id="矩形" fill="#E9EFF6"></path>
                <path d="M47.0746413,0.71309949 L67.1310247,0.38001033 C67.4670528,0.363128958 67.7699987,0.624072734 67.8076733,0.962844568 C67.8102127,0.985679428 67.8114854,1.00856001 67.8114854,1.03137948 L67.8114854,11.6621183 C67.8114854,11.9742327 67.5772518,12.221987 67.2674563,12.2375505 L47.211073,13.1836267 C46.8750448,13.200508 46.5720989,12.9395643 46.5344244,12.6007924 C46.5318849,12.5779576 46.5306122,12.555077 46.5306122,12.5322575 L46.5306122,1.28853168 C46.5306122,0.976417313 46.7648459,0.728662987 47.0746413,0.71309949 Z" id="矩形" fill="url(#linearGradient-19)"></path>
                <path d="M74.3901051,11.5256243 L75.3009283,11.3605512 L77.2096491,12.658431 L76.3687317,13.0448721 L76.2934115,12.99218 C77.0868193,13.8763958 77.6504239,14.9863111 77.8710566,16.2425698 C77.9415243,16.6438053 77.9745573,17.0507207 77.9697296,17.4580686 L77.755102,35.5676522 L66.1870207,37.9166144 L66.4048467,38.59329 L64.2857143,39.8441558 L62.3950677,38.6879726 L62.3960207,38.6866144 L62.3890207,38.6879726 L62.4309859,20.2009634 C62.4413965,15.6147535 65.7392377,11.6962881 70.2563242,10.9029664 C71.7224324,10.6454785 73.16032,10.8950766 74.3901051,11.5256243 Z" id="合并形状" fill="url(#linearGradient-20)"></path>
                <path d="M71.9387755,11.9676522 C75.4029917,11.2739692 78.773635,13.51993 79.467318,16.9841462 C79.5501275,17.3976925 79.5918367,17.8184146 79.5918367,18.2401705 L79.5918367,36.7936262 L79.5918367,36.7936262 L64.2857143,39.8585613 L64.2857143,21.3051055 C64.2857143,16.7665945 67.4886069,12.8587648 71.9387755,11.9676522 Z" id="矩形-copy-4" fill="url(#linearGradient-21)"></path>
                <line x1="52.9090909" y1="5.38137472" x2="62.2147885" y2="4.98226164" id="路径-9" stroke="#66A9FF" stroke-width="1.5" stroke-linecap="round" stroke-linejoin="round"></line>
                <line x1="52.9090909" y1="7.5631929" x2="57.0465803" y2="7.42300098" id="路径-9-copy" stroke="#FFFFFF" stroke-width="1.5" stroke-linecap="round" stroke-linejoin="round"></line>
                <line x1="58.4886823" y1="7.36363636" x2="59.8810144" y2="7.29784418" id="路径-10" stroke="#FFFFFF" stroke-width="1.5" stroke-linecap="round" stroke-linejoin="round"></line>
            </g>
        </g>
    </g>
</svg>