<?xml version="1.0" encoding="UTF-8"?>
<svg width="20px" height="20px" viewBox="0 0 20 20" version="1.1" xmlns="http://www.w3.org/2000/svg" xmlns:xlink="http://www.w3.org/1999/xlink">
    <!-- Generator: Sketch 60.1 (88133) - https://sketch.com -->
    <title>Rectangle</title>
    <desc>Created with Sketch.</desc>
    <g id="1.0" stroke="none" stroke-width="1" fill="none" fill-rule="evenodd">
        <g id="切图" transform="translate(-543.000000, -49.000000)">
            <g id="会议室下线流程" transform="translate(543.000000, 49.000000)">
                <rect id="Rectangle" fill="#000000" fill-rule="nonzero" opacity="0" x="0" y="0" width="20" height="20"></rect>
                <path d="M17.2,2 C17.6418278,2 18,2.35889844 18,2.80162211 L18,2.80162211 L18,13.2227095 C18,13.6654332 17.6418278,14.0243316 17.2,14.0243316 L17.2,14.0243316 L11.9312,14.0243316 L15.2,17.2997595 C15.5125574,17.6129507 15.5125574,18.120062 15.2,18.4332532 L15.2,18.4332532 C14.8864832,18.7461378 14.3805402,18.7456254 14.0688,18.4332532 L14.0688,18.4332532 L10.8,15.1578253 L10.8,16.8316311 C10.8,17.2734589 10.4418278,17.6316311 10,17.6316311 C9.5581722,17.6316311 9.19999999,17.2734589 9.19999999,16.8316311 L9.19999999,16.8316311 L9.19999999,15.1578253 L5.9312,18.4332532 C5.93081889,18.4336351 5.93043739,18.4340166 5.9300555,18.4343977 C5.61768324,18.7461378 5.11174016,18.7456254 4.8,18.4332532 C4.48744259,18.120062 4.48744259,17.6129507 4.8,17.2997595 L4.8,17.2997595 L8.06880001,14.0243316 L2.80000001,14.0243316 C2.35817221,14.0243316 2,13.6654332 2,13.2227095 L2,13.2227095 L2,2.80162211 C2,2.35889844 2.3581722,2 2.80000001,2 L2.80000001,2 Z M16.4,3.60324422 L3.60000001,3.60324422 L3.60000001,12.4210874 L16.4,12.4210874 L16.4,3.60324422 Z M10,5.20648843 C10.4418278,5.20648843 10.8,5.56466063 10.8,6.00648844 L10.8,6.00648844 L10.8,8.87070307 L11.7166852,8.01204324 C12.0569576,7.69330973 12.5861922,7.69336335 12.9264,8.0121658 C12.9387027,8.02369445 12.9506267,8.03562071 12.962153,8.04792562 C13.2553495,8.36092738 13.2392941,8.8523481 12.9262923,9.14554452 L12.9262923,9.14554452 L10.536,11.38459 C10.2024,11.6972226 9.66000001,11.6972226 9.32640001,11.38459 L9.32640001,11.38459 L6.9361077,9.14554452 C6.92380279,9.13401821 6.91187653,9.12209422 6.90034788,9.1097915 C6.60709198,8.79684547 6.62305398,8.30542171 6.93600001,8.0121658 C7.27622651,7.69334588 7.80547391,7.69323868 8.14582953,8.01192077 L8.14582953,8.01192077 L9.19999999,8.99896261 L9.19999999,6.00648844 C9.19999999,5.56466063 9.5581722,5.20648843 10,5.20648843 Z" id="Combined-Shape" fill="#2C85F9"></path>
            </g>
        </g>
    </g>
</svg>