<?xml version="1.0" encoding="UTF-8"?>
<svg width="16px" height="16px" viewBox="0 0 16 16" version="1.1" xmlns="http://www.w3.org/2000/svg" xmlns:xlink="http://www.w3.org/1999/xlink">
    <!-- Generator: Sketch 60.1 (88133) - https://sketch.com -->
    <title>Pdf</title>
    <desc>Created with Sketch.</desc>
    <g id="1.0" stroke="none" stroke-width="1" fill="none" fill-rule="evenodd">
        <g id="切图" transform="translate(-12.000000, -138.000000)" fill-rule="nonzero">
            <g id="Pdf" transform="translate(12.000000, 138.000000)">
                <rect id="Rectangle" fill="#000000" opacity="0" x="0" y="0" width="16" height="16"></rect>
                <path d="M14.0914283,14.4761919 C14.0914283,14.6782614 14.0111437,14.8720547 13.868259,15.0149394 C13.7253743,15.1578242 13.531581,15.238096 13.3295115,15.238096 L2.66285497,15.238096 C2.46078545,15.238096 2.26699218,15.1578242 2.12410746,15.0149394 C1.98122273,14.8720547 1.90095094,14.6782614 1.90095094,14.4761919 L1.90095094,0.761919281 C1.90095094,0.559849766 1.98122273,0.36605649 2.12410746,0.223171764 C2.26699218,0.0802870379 2.46078545,2.4829687e-06 2.66285497,2.4829687e-06 L9.20761064,2.4829687e-06 C9.41012701,-0.00115562685 9.60477686,0.078349246 9.7485625,0.220967406 L13.8704633,4.34286825 C14.0130815,4.48665389 14.0925864,4.68130374 14.0914283,4.88382011 L14.0914283,14.4761919 L14.0914283,14.4761919 Z" id="Path" fill="#FFFFFF"></path>
                <path d="M14.0914155,14.4761919 L14.0914155,15.238096 C14.0914155,15.4401655 14.0111437,15.6339588 13.868259,15.7768435 C13.7253743,15.9197282 13.531581,16 13.3295115,16 L2.66285497,16 C2.24206699,16 1.90095094,15.6588839 1.90095094,15.238096 L1.90095094,14.4761919 C1.90095094,14.6782614 1.98122273,14.8720547 2.12410746,15.0149394 C2.26699218,15.1578242 2.46078545,15.238096 2.66285497,15.238096 L13.3295115,15.238096 C13.531581,15.238096 13.7253743,15.1578242 13.868259,15.0149394 C14.0111437,14.8720547 14.0914155,14.6782614 14.0914155,14.4761919 L14.0914155,14.4761919 Z" id="Path" fill="#C1C7D0"></path>
                <path d="M0.377142859,8.38095964 L15.6152236,8.38095964 L15.6152236,12.1904798 C15.6152236,12.3925493 15.5349518,12.5863426 15.3920671,12.7292273 C15.2491823,12.8721121 15.0553891,12.9523839 14.8533195,12.9523839 L1.13904689,12.9523839 C0.936977375,12.9523839 0.743184101,12.8721121 0.600299378,12.7292273 C0.457414655,12.5863426 0.377142859,12.3925493 0.377142859,12.1904798 L0.377142859,8.38095964 L0.377142859,8.38095964 Z" id="Path" fill="#FF5630"></path>
                <path d="M1.90095094,8.38095964 L1.90095094,6.85715156 L0.377142859,8.38095964 L1.90095094,8.38095964 Z M14.0914155,8.38095964 L14.1066536,6.85715156 L15.6228426,8.38095964 L14.0914155,8.38095964 Z" id="Shape" fill="#DE350B"></path>
                <path d="M4.18666303,9.14286367 L5.51237606,9.14286367 C5.75487544,9.13152192 5.99151127,9.21957246 6.16761353,9.38667297 C6.33667428,9.5558262 6.42775886,9.78767786 6.41904186,10.0266724 C6.42684023,10.2655093 6.33589403,10.4970087 6.16761353,10.6666717 C5.98526173,10.8393412 5.74036108,10.930147 5.48951894,10.9181001 L4.72761491,10.9181001 L4.72761491,12.1142894 L4.18666303,12.1142894 L4.18666303,9.14286367 Z M4.69713875,10.4228625 L5.38285238,10.4228625 C5.52459456,10.4340087 5.66616458,10.399284 5.78666152,10.3238149 C5.87440404,10.2448211 5.91961068,10.1289791 5.90856616,10.0114343 C5.90856616,9.75238691 5.73840759,9.62286322 5.39809045,9.62286322 L4.69713875,9.62286322 L4.69713875,10.4228625 Z M6.79237484,9.18857792 L7.99618322,9.18857792 C8.34550328,9.17383639 8.6823534,9.31980477 8.91046806,9.58476802 C9.15145302,9.8863765 9.27344251,10.2658994 9.25332487,10.6514337 C9.27011343,11.0411624 9.15465721,11.4251214 8.92570614,11.7409564 C8.70753258,12.0331981 8.36073231,12.200913 7.99618322,12.1904798 L6.79237484,12.1904798 L6.79237484,9.18857792 Z M7.30285055,11.6723851 L7.99618322,11.6723851 C8.21627267,11.6803278 8.42651113,11.5808907 8.5599922,11.4057187 C8.70674798,11.1884246 8.77648955,10.9282349 8.75808725,10.6666717 C8.78347697,10.3950758 8.70748864,10.1236889 8.54475413,9.9047677 C8.39683301,9.73631382 8.18223086,9.64155443 7.95808802,9.64572034 L7.30285055,9.64572034 L7.30285055,11.6723851 Z M11.8057034,9.66857745 L10.228562,9.66857745 L10.228562,10.3771482 L11.8057034,10.3771482 L11.8057034,10.8647668 L10.228562,10.8647668 L10.228562,12.1447656 L9.71808634,12.1447656 L9.71808634,9.17333983 L11.8057034,9.17333983 L11.8057034,9.66857745 Z" id="Shape" fill="#FFFFFF"></path>
                <path d="M14.0914155,4.88382011 L14.0914155,4.99048667 L9.96951467,4.99048667 C9.54872669,4.99048667 9.20761064,4.64937062 9.20761064,4.22858264 L9.20761064,2.4829687e-06 C9.41012701,-0.00115562685 9.60477686,0.078349246 9.7485625,0.220967406 L13.8780824,4.34286825 C14.0179136,4.48789064 14.0946176,4.68239023 14.0914155,4.88382011 L14.0914155,4.88382011 Z" id="Path" fill="#C1C7D0"></path>
            </g>
        </g>
    </g>
</svg>