<?xml version="1.0" encoding="UTF-8"?>
<svg width="20px" height="20px" viewBox="0 0 20 20" version="1.1" xmlns="http://www.w3.org/2000/svg" xmlns:xlink="http://www.w3.org/1999/xlink">
    <!-- Generator: Sketch 60.1 (88133) - https://sketch.com -->
    <title>Rectangle</title>
    <desc>Created with Sketch.</desc>
    <g id="1.0" stroke="none" stroke-width="1" fill="none" fill-rule="evenodd">
        <g id="切图" transform="translate(-448.000000, -109.000000)">
            <g id="add" transform="translate(448.000000, 109.000000)">
                <rect id="Rectangle" fill="#000000" opacity="0" x="0" y="0" width="20" height="20"></rect>
                <path d="M10,16.25 C10.345178,16.25 10.625,15.970178 10.625,15.625 L10.625,10.625 L15.625,10.625 C15.970178,10.625 16.25,10.345178 16.25,10 C16.25,9.65482203 15.970178,9.375 15.625,9.375 L10.625,9.375 L10.625,4.375 C10.625,4.02982203 10.345178,3.75 10,3.75 C9.65482203,3.75 9.375,4.02982203 9.375,4.375 L9.375,9.375 L4.375,9.375 C4.02982203,9.375 3.75,9.65482203 3.75,10 C3.75,10.345178 4.02982203,10.625 4.375,10.625 L9.375,10.625 L9.375,15.625 C9.375,15.970178 9.65482203,16.25 10,16.25" id="Path" fill="#95A1B7"></path>
            </g>
        </g>
    </g>
</svg>