<?xml version="1.0" encoding="UTF-8"?>
<svg width="16px" height="16px" viewBox="0 0 16 16" version="1.1" xmlns="http://www.w3.org/2000/svg" xmlns:xlink="http://www.w3.org/1999/xlink">
    <!-- Generator: Sketch 60.1 (88133) - https://sketch.com -->
    <title>Rectangle</title>
    <desc>Created with Sketch.</desc>
    <g id="1.0" stroke="none" stroke-width="1" fill="none" fill-rule="evenodd">
        <g id="切图" transform="translate(-12.000000, -77.000000)" fill-rule="nonzero">
            <g id="浏览" transform="translate(12.000000, 77.000000)">
                <rect id="Rectangle" fill="#000000" opacity="0" x="0" y="0" width="16" height="16"></rect>
                <path d="M6.11728836,8.50456503 C6.11728836,8.75665973 6.16709209,9.0087357 6.26286153,9.24164342 C6.35861848,9.4746292 6.50038175,9.68828122 6.67746169,9.86661656 C6.85447605,10.0449051 7.06659161,10.1876676 7.29789728,10.2841304 C7.5291405,10.3806555 7.77942081,10.4307341 8.02978231,10.4307341 C8.28009384,10.4307341 8.53037103,10.3806555 8.76161425,10.2841304 C8.99292305,10.1876676 9.20505109,10.044905 9.38213105,9.86661656 C9.55914853,9.68827809 9.70089305,9.47462608 9.79666563,9.24164342 C9.89250377,9.00873883 9.9423075,8.75664412 9.9423075,8.50456503 C9.9423075,8.25238912 9.89250377,8.00031316 9.79666563,7.76742419 C9.70089306,7.53443841 9.55914541,7.32078639 9.38213105,7.14249789 C9.20505111,6.96414381 8.99292306,6.82137811 8.76161425,6.72491852 C8.53037103,6.62840895 8.28007511,6.57831478 8.02978231,6.57831478 C7.77942394,6.57831478 7.52914362,6.62840894 7.29789728,6.72491852 C7.06658848,6.82138123 6.85447917,6.96414383 6.67746169,7.14249789 C6.50038175,7.32077077 6.35861536,7.5344228 6.26286153,7.76742419 C6.16708897,8.00031005 6.11728836,8.25238913 6.11728836,8.50456503 L6.11728836,8.50456503 Z M14.9117507,8.03914309 C14.9117507,8.03914309 14.9038155,7.85569872 13.2177867,6.26845613 C10.8077769,4.16937617 8.6595803,3.86799927 7.06180733,4.06714548 C5.46402187,4.26629172 4.26167144,5.13279172 4.16552414,5.18666458 C3.40669175,5.61186067 1.26385084,7.72701722 1.13565339,7.99074466 C0.831034922,8.62043647 1.24787106,9.25011269 1.24787106,9.25011269 C1.24787106,9.25011269 4.70526133,12.9937558 7.84734973,12.9937558 C10.9894381,12.9937558 12.4803804,11.6343774 13.1109217,11.1392975 C13.7414629,10.6441207 14.5162407,9.74527073 14.9117445,9.21249445 C15.1896623,8.61504325 14.9117507,8.03914309 14.9117507,8.03914309 L14.9117507,8.03914309 Z M8.02978231,11.738638 C6.25636281,11.738638 4.81871255,10.2906759 4.81871255,8.50456191 C4.81871255,6.71838544 6.2563597,5.27042028 8.02977919,5.27042028 C9.80316745,5.27042028 11.2407865,6.71838231 11.2407865,8.50456191 C11.2407865,10.2906759 9.80317058,11.738638 8.02978231,11.738638 L8.02978231,11.738638 Z" id="Shape" fill="#95A1B7"></path>
            </g>
        </g>
    </g>
</svg>