<?xml version="1.0" encoding="UTF-8"?>
<svg width="16px" height="16px" viewBox="0 0 16 16" version="1.1" xmlns="http://www.w3.org/2000/svg" xmlns:xlink="http://www.w3.org/1999/xlink">
    <!-- Generator: Sketch 60.1 (88133) - https://sketch.com -->
    <title>Rectangle</title>
    <desc>Created with Sketch.</desc>
    <g id="1.0" stroke="none" stroke-width="1" fill="none" fill-rule="evenodd">
        <g id="切图" transform="translate(-196.000000, -123.000000)" fill-rule="nonzero">
            <g id="QQ-Copy" transform="translate(196.000000, 123.000000)">
                <rect id="Rectangle" fill="#000000" opacity="0" x="0" y="0" width="16" height="16"></rect>
                <path d="M14.5850953,10.0603471 C14.2915983,8.35807722 13.058946,7.24280137 13.058946,7.24280137 C13.2350187,5.69716131 12.5893285,5.42309114 12.5893285,5.42309114 C12.4533726,0.641053359 8.33410148,0.724788594 8.24761611,0.727059047 C8.16101883,0.724788594 4.04118806,0.641053359 3.90585583,5.42312311 C3.90585583,5.42312311 3.26014961,5.6971773 3.43625422,7.24283334 C3.43625422,7.24283334 2.20352202,8.35810919 1.91005698,10.060379 C1.91005698,10.060379 1.75328328,12.9366689 3.31879786,10.4126202 C3.31879786,10.4126202 3.67105503,11.3711224 4.31672927,12.2322345 C4.31672927,12.2322345 3.16208811,12.623825 3.26014962,13.6410553 C3.26014962,13.6410553 3.2208163,14.775726 5.72553409,14.6976989 C5.72553409,14.6976989 7.48650016,14.5608797 8.01484594,13.8172239 L8.2455695,13.8172239 L8.24967872,13.8172239 L8.4803863,13.8172239 C9.00865212,14.5609117 10.7696662,14.6976989 10.7696662,14.6976989 C13.2737604,14.775726 13.2350027,13.6410553 13.2350027,13.6410553 C13.3324726,12.623825 12.178439,12.2322345 12.178439,12.2322345 C12.8241292,11.3711543 13.1762745,10.4126202 13.1762745,10.4126202 C14.7412135,12.936637 14.5850953,10.0603471 14.5850953,10.0603471 L14.5850953,10.0603471 Z" id="Path" fill="#337CDB"></path>
            </g>
        </g>
    </g>
</svg>