<?xml version="1.0" encoding="UTF-8"?>
<svg width="20px" height="20px" viewBox="0 0 20 20" version="1.1" xmlns="http://www.w3.org/2000/svg" xmlns:xlink="http://www.w3.org/1999/xlink">
    <!-- Generator: Sketch 60.1 (88133) - https://sketch.com -->
    <title>Rectangle</title>
    <desc>Created with Sketch.</desc>
    <g id="1.0" stroke="none" stroke-width="1" fill="none" fill-rule="evenodd">
        <g id="切图" transform="translate(-427.000000, -17.000000)">
            <g id="share" transform="translate(427.000000, 17.000000)">
                <rect id="Rectangle" fill="#000000" fill-rule="nonzero" opacity="0" x="0" y="0" width="20" height="20"></rect>
                <path d="M14.375,15.625 C13.685625,15.625 13.125,15.064375 13.125,14.375 C13.125,13.685625 13.685625,13.125 14.375,13.125 C15.064375,13.125 15.625,13.685625 15.625,14.375 C15.625,15.064375 15.064375,15.625 14.375,15.625 M5.625,11.25 C4.935625,11.25 4.375,10.689375 4.375,10 C4.375,9.310625 4.935625,8.75 5.625,8.75 C6.314375,8.75 6.875,9.310625 6.875,10 C6.875,10.689375 6.314375,11.25 5.625,11.25 M14.375,4.375 C15.064375,4.375 15.625,4.935625 15.625,5.625 C15.625,6.314375 15.064375,6.875 14.375,6.875 C13.685625,6.875 13.125,6.314375 13.125,5.625 C13.125,4.935625 13.685625,4.375 14.375,4.375 M14.375,11.875 C13.4113881,11.8775659 12.53535,12.4346686 12.124375,13.30625 L8.1225,11.02 C8.06328501,10.9887919 7.99928351,10.9676693 7.933125,10.9575 C8.05956077,10.6540975 8.12476914,10.3286929 8.125,10 C8.125,9.87 8.105625,9.744375 8.08625,9.62 C8.098125,9.61375 8.11125,9.611875 8.1225,9.605 L12.411875,7.154375 C12.880903,7.76413546 13.6057218,8.12250655 14.375,8.125 C15.75375,8.125 16.875,7.00375 16.875,5.625 C16.875,4.24625 15.75375,3.125 14.375,3.125 C12.99625,3.125 11.875,4.24625 11.875,5.625 C11.875,5.75625 11.894375,5.881875 11.91375,6.008125 C11.901875,6.01375 11.88875,6.013125 11.8775,6.02 L7.588125,8.470625 C7.11909696,7.86086454 6.39427817,7.50249345 5.625,7.5 C4.24625,7.5 3.125,8.62125 3.125,10 C3.125,11.37875 4.24625,12.5 5.625,12.5 C6.23511614,12.4979611 6.82304812,12.2709776 7.27625,11.8625 C7.32782316,11.9626774 7.40613453,12.0466134 7.5025,12.105 L11.8775,14.605 C11.884375,14.609375 11.891875,14.61 11.899375,14.61375 C12.02125,15.87875 13.078125,16.875 14.375,16.875 C15.75375,16.875 16.875,15.75375 16.875,14.375 C16.875,12.99625 15.75375,11.875 14.375,11.875" id="Shape" fill="#95A1B7"></path>
            </g>
        </g>
    </g>
</svg>