<?xml version="1.0" encoding="UTF-8"?>
<svg width="20px" height="20px" viewBox="0 0 20 20" version="1.1" xmlns="http://www.w3.org/2000/svg" xmlns:xlink="http://www.w3.org/1999/xlink">
    <!-- Generator: Sketch 60.1 (88133) - https://sketch.com -->
    <title>Rectangle</title>
    <desc>Created with Sketch.</desc>
    <g id="1.0" stroke="none" stroke-width="1" fill="none" fill-rule="evenodd">
        <g id="切图" transform="translate(-311.000000, -49.000000)">
            <g id="collection" transform="translate(311.000000, 49.000000)">
                <rect id="Rectangle" fill="#000000" fill-rule="nonzero" opacity="0" x="0" y="0" width="20" height="20"></rect>
                <path d="M13.57625,10.67125 C13.1825,11.058125 12.964375,11.73375 13.0575,12.28 L13.584375,15.376875 L10.830625,13.918125 C10.34125,13.659375 9.63125,13.65875 9.141875,13.918125 L6.388125,15.37625 L6.915625,12.279375 C7.008125,11.734375 6.789375,11.058125 6.396875,10.67125 L4.159375,8.47375 L7.246875,8.021875 C7.7925,7.941875 8.36625,7.521875 8.61,7.025 L9.98625,4.215 L11.3625,7.025 C11.606875,7.5225 12.18,7.941875 12.72625,8.021875 L15.81375,8.47375 L13.57625,10.67125 L13.57625,10.67125 Z M17.14125,8.9225 C17.43375,8.635 17.539375,8.27875 17.430625,7.945625 C17.3225,7.613125 17.0275,7.38875 16.623125,7.329375 L12.906875,6.785 C12.77125,6.765 12.546875,6.6 12.485,6.475 L10.823125,3.08125 C10.6425,2.7125 10.336875,2.5 9.985625,2.5 C9.635625,2.5 9.33,2.7125 9.14875,3.08125 L7.4875,6.475 C7.42625,6.6 7.20125,6.765 7.065,6.785 L3.34875,7.32875 C2.944375,7.38875 2.650625,7.613125 2.5425,7.945625 C2.433125,8.278125 2.53875,8.634375 2.83125,8.9225 L5.52,11.5625 C5.62,11.660625 5.7075,11.930625 5.683125,12.06875 L5.048125,15.798125 C4.979375,16.204375 5.1025,16.55625 5.386875,16.761875 C5.53375,16.868125 5.704375,16.92125 5.884375,16.92125 C6.051875,16.92125 6.22875,16.875 6.403125,16.7825 L9.726875,15.021875 C9.845625,14.959375 10.126875,14.959375 10.245625,15.021875 L13.56875,16.7825 C13.93,16.974375 14.30125,16.96625 14.585,16.761875 C14.869375,16.555625 14.993125,16.205 14.924375,15.79875 L14.289375,12.06875 C14.265625,11.930625 14.3525,11.660625 14.451875,11.5625 L17.14125,8.921875 L17.14125,8.9225 Z" id="Shape" fill="#2C85F9"></path>
            </g>
        </g>
    </g>
</svg>