<?xml version="1.0" encoding="UTF-8"?>
<svg width="16px" height="16px" viewBox="0 0 16 16" version="1.1" xmlns="http://www.w3.org/2000/svg" xmlns:xlink="http://www.w3.org/1999/xlink">
    <!-- Generator: Sketch 60.1 (88133) - https://sketch.com -->
    <title>Rectangle</title>
    <desc>Created with Sketch.</desc>
    <g id="1.0" stroke="none" stroke-width="1" fill="none" fill-rule="evenodd">
        <g id="切图" transform="translate(-155.000000, -190.000000)" fill-rule="nonzero">
            <g id="icon/btn/up" transform="translate(155.000000, 190.000000)">
                <rect id="Rectangle" fill="#000000" opacity="0" x="0" y="0" width="16" height="16"></rect>
                <path d="M8,1.49848135 C8.13258591,1.49848135 8.25926667,1.55332277 8.35,1.65 L11.35,4.65 C11.4466772,4.74073333 11.5015186,4.86741409 11.5015186,5 C11.5015186,5.13258591 11.4466772,5.25926667 11.35,5.35 C11.2597197,5.44713835 11.1326039,5.50161655 11,5.50003498 C10.8673961,5.50161655 10.7402803,5.44713835 10.65,5.35 L8.5,3.20748135 L8.5,13.4994814 L13.5,13.5 C13.7761424,13.5 14,13.7238576 14,14 C14,14.2761424 13.7761424,14.5 13.5,14.5 L2.5,14.5 C2.22385763,14.5 2,14.2761424 2,14 C2,13.7238576 2.22385763,13.5 2.5,13.5 L7.5,13.4994814 L7.5,3.20748135 L5.35,5.35 C5.15670034,5.54329965 4.84329967,5.54329964 4.65000001,5.34999999 C4.45670036,5.15670033 4.45670035,4.84329966 4.65,4.65 L7.65,1.65 C7.74073333,1.55332277 7.86741409,1.49848135 8,1.49848135 Z M5.5,9.5 C5.77614237,9.5 6,9.72385763 6,10 C6,10.2761424 5.77614237,10.5 5.5,10.5 L2.5,10.5 C2.22385763,10.5 2,10.2761424 2,10 C2,9.72385763 2.22385763,9.5 2.5,9.5 L5.5,9.5 Z M13.5,9.5 C13.7761424,9.5 14,9.72385763 14,10 C14,10.2761424 13.7761424,10.5 13.5,10.5 L10.5,10.5 C10.2238576,10.5 10,10.2761424 10,10 C10,9.72385763 10.2238576,9.5 10.5,9.5 L13.5,9.5 Z" id="Combined-Shape" fill="#337CDB"></path>
            </g>
        </g>
    </g>
</svg>