<?xml version="1.0" encoding="UTF-8"?>
<svg width="16px" height="16px" viewBox="0 0 16 16" version="1.1" xmlns="http://www.w3.org/2000/svg" xmlns:xlink="http://www.w3.org/1999/xlink">
    <!-- Generator: Sketch 60.1 (88133) - https://sketch.com -->
    <title>Rectangle</title>
    <desc>Created with Sketch.</desc>
    <g id="1.0" stroke="none" stroke-width="1" fill="none" fill-rule="evenodd">
        <g id="切图" transform="translate(-91.000000, -123.000000)" fill-rule="nonzero">
            <g id="微信-(1)-copy" transform="translate(91.000000, 123.000000)">
                <rect id="Rectangle" fill="#000000" opacity="0" x="0" y="0" width="16" height="16"></rect>
                <path d="M10.676,5.067 C10.836,5.067 10.992,5.074 11.151,5.089 C10.792,2.809 8.556,1.052 5.85,1.052 C2.894,1.052 0.498,3.149 0.498,5.735 C0.498,7.181 1.248,8.474 2.424,9.334 C2.274,10.086 2.087,11.075 2.114,11.042 C2.155,11.027 3.189,10.453 3.839,10.077 C4.46,10.296 5.138,10.419 5.85,10.419 C5.925,10.419 5.998,10.417 6.073,10.415 C5.99,10.092 5.947,9.761 5.947,9.415 C5.946,7.014 8.063,5.067 10.676,5.067 Z M7.952,3.538 C8.322,3.538 8.621,3.837 8.621,4.206 C8.621,4.576 8.321,4.876 7.952,4.876 C7.583,4.876 7.283,4.575 7.283,4.206 C7.283,3.837 7.583,3.538 7.952,3.538 Z M3.843,4.876 C3.473,4.876 3.175,4.575 3.175,4.206 C3.175,3.837 3.474,3.538 3.843,3.538 C4.212,3.538 4.512,3.837 4.512,4.206 C4.512,4.576 4.212,4.876 3.843,4.876 L3.843,4.876 Z M15.502,9.271 C15.502,7.107 13.449,5.353 10.916,5.353 C8.382,5.353 6.328,7.108 6.328,9.271 C6.328,11.435 8.382,13.191 10.916,13.191 C11.605,13.191 12.258,13.06 12.846,12.827 C13.451,13.15 14.11,13.49 14.143,13.5 C14.166,13.525 14.036,12.892 13.895,12.253 C14.877,11.531 15.502,10.465 15.502,9.271 Z M9.195,8.411 C8.825,8.411 8.525,8.112 8.525,7.743 C8.525,7.374 8.825,7.073 9.195,7.073 C9.564,7.073 9.863,7.374 9.863,7.743 C9.863,8.112 9.564,8.411 9.195,8.411 Z M12.539,8.411 C12.17,8.411 11.869,8.112 11.869,7.743 C11.869,7.374 12.17,7.073 12.539,7.073 C12.908,7.073 13.209,7.374 13.209,7.743 C13.209,8.112 12.908,8.411 12.539,8.411 Z" id="Shape" fill="#337CDB"></path>
            </g>
        </g>
    </g>
</svg>