<?xml version="1.0" encoding="UTF-8"?>
<svg width="16px" height="16px" viewBox="0 0 16 16" version="1.1" xmlns="http://www.w3.org/2000/svg" xmlns:xlink="http://www.w3.org/1999/xlink">
    <!-- Generator: Sketch 60.1 (88133) - https://sketch.com -->
    <title>word</title>
    <desc>Created with Sketch.</desc>
    <g id="1.0" stroke="none" stroke-width="1" fill="none" fill-rule="evenodd">
        <g id="切图" transform="translate(-12.000000, -165.000000)" fill-rule="nonzero">
            <g id="word" transform="translate(12.000000, 165.000000)">
                <rect id="Rectangle" fill="#000000" opacity="0" x="0" y="0" width="16" height="16"></rect>
                <path d="M14.0914283,14.4761919 C14.0914283,14.6782614 14.0111437,14.8720547 13.868259,15.0149394 C13.7253743,15.1578242 13.531581,15.238096 13.3295115,15.238096 L2.66285497,15.238096 C2.46078545,15.238096 2.26699218,15.1578242 2.12410746,15.0149394 C1.98122273,14.8720547 1.90095094,14.6782614 1.90095094,14.4761919 L1.90095094,0.761919281 C1.90095094,0.559849766 1.98122273,0.36605649 2.12410746,0.223171764 C2.26699218,0.0802870379 2.46078545,2.4829687e-06 2.66285497,2.4829687e-06 L9.20761064,2.4829687e-06 C9.41012701,-0.00115562685 9.60477686,0.078349246 9.7485625,0.220967406 L13.8704633,4.34286825 C14.0130815,4.48665389 14.0925864,4.68130374 14.0914283,4.88382011 L14.0914283,14.4761919 L14.0914283,14.4761919 Z" id="Path" fill="#FFFFFF"></path>
                <path d="M14.0914155,14.4761919 L14.0914155,15.238096 C14.0914155,15.4401655 14.0111437,15.6339588 13.868259,15.7768435 C13.7253743,15.9197282 13.531581,16 13.3295115,16 L2.66285497,16 C2.24206699,16 1.90095094,15.6588839 1.90095094,15.238096 L1.90095094,14.4761919 C1.90095094,14.6782614 1.98122273,14.8720547 2.12410746,15.0149394 C2.26699218,15.1578242 2.46078545,15.238096 2.66285497,15.238096 L13.3295115,15.238096 C13.531581,15.238096 13.7253743,15.1578242 13.868259,15.0149394 C14.0111437,14.8720547 14.0914155,14.6782614 14.0914155,14.4761919 L14.0914155,14.4761919 Z" id="Path" fill="#C1C7D0"></path>
                <path d="M0.377142859,8.38095964 L15.6152236,8.38095964 L15.6152236,12.1904798 C15.6152236,12.3925493 15.5349518,12.5863426 15.3920671,12.7292273 C15.2491823,12.8721121 15.0553891,12.9523839 14.8533195,12.9523839 L1.13904689,12.9523839 C0.936977375,12.9523839 0.743184101,12.8721121 0.600299378,12.7292273 C0.457414655,12.5863426 0.377142859,12.3925493 0.377142859,12.1904798 L0.377142859,8.38095964 L0.377142859,8.38095964 Z" id="Path" fill="#2C85F9"></path>
                <path d="M1.90095094,8.38095964 L1.90095094,6.85715156 L0.377142859,8.38095964 L1.90095094,8.38095964 Z M14.0914155,8.38095964 L14.1066536,6.85715156 L15.6228426,8.38095964 L14.0914155,8.38095964 Z" id="Shape" fill="#1958AA"></path>
                <path d="M4.32,11.912 L4.88,9.764 L4.896,9.764 L5.452,11.912 L5.948,11.912 L6.772,9.056 L6.244,9.056 L5.708,11.228 L5.692,11.228 L5.128,9.056 L4.644,9.056 L4.08,11.228 L4.064,11.228 L3.528,9.056 L3,9.056 L3.82,11.912 L4.32,11.912 Z M7.992,11.968 C8.304,11.968 8.56,11.864 8.752,11.656 C8.936,11.456 9.032,11.196 9.032,10.88 C9.032,10.56 8.936,10.3 8.748,10.096 C8.556,9.888 8.304,9.788 7.992,9.788 C7.676,9.788 7.424,9.888 7.236,10.096 C7.044,10.3 6.952,10.56 6.952,10.88 C6.952,11.196 7.044,11.456 7.232,11.656 C7.424,11.864 7.676,11.968 7.992,11.968 Z M7.992,11.596 C7.8,11.596 7.656,11.52 7.552,11.372 C7.464,11.244 7.42,11.08 7.42,10.88 C7.42,10.68 7.464,10.512 7.552,10.384 C7.656,10.232 7.8,10.16 7.992,10.16 C8.18,10.16 8.328,10.232 8.432,10.384 C8.52,10.512 8.568,10.68 8.568,10.88 C8.568,11.076 8.52,11.24 8.432,11.372 C8.328,11.52 8.18,11.596 7.992,11.596 Z M9.884,11.912 L9.884,10.816 C9.884,10.64 9.936,10.5 10.048,10.392 C10.144,10.296 10.252,10.252 10.372,10.252 C10.468,10.252 10.564,10.264 10.668,10.296 L10.668,9.84 C10.596,9.804 10.508,9.788 10.408,9.788 C10.28,9.788 10.172,9.824 10.08,9.9 C10.004,9.956 9.94,10.036 9.884,10.14 L9.884,9.844 L9.432,9.844 L9.432,11.912 L9.884,11.912 Z M11.808,11.968 C12.08,11.968 12.288,11.876 12.432,11.692 L12.432,11.912 L12.856,11.912 L12.856,9 L12.4,9 L12.4,10.128 C12.228,9.9 12.024,9.788 11.784,9.788 C11.488,9.788 11.252,9.896 11.084,10.112 C10.924,10.312 10.848,10.564 10.848,10.868 C10.848,11.184 10.928,11.444 11.088,11.644 C11.26,11.86 11.5,11.968 11.808,11.968 Z M11.876,11.6 C11.672,11.6 11.524,11.528 11.432,11.384 C11.352,11.264 11.316,11.092 11.316,10.868 C11.316,10.644 11.356,10.476 11.44,10.36 C11.536,10.224 11.684,10.156 11.892,10.156 C12.036,10.156 12.16,10.216 12.256,10.336 C12.36,10.464 12.416,10.64 12.416,10.86 L12.416,10.892 C12.416,11.092 12.372,11.26 12.288,11.388 C12.192,11.528 12.052,11.6 11.876,11.6 Z" id="Word" fill="#FFFFFF"></path>
                <path d="M14.0914155,4.88382011 L14.0914155,4.99048667 L9.96951467,4.99048667 C9.54872669,4.99048667 9.20761064,4.64937062 9.20761064,4.22858264 L9.20761064,2.4829687e-06 C9.41012701,-0.00115562685 9.60477686,0.078349246 9.7485625,0.220967406 L13.8780824,4.34286825 C14.0179136,4.48789064 14.0946176,4.68239023 14.0914155,4.88382011 L14.0914155,4.88382011 Z" id="Path" fill="#C1C7D0"></path>
            </g>
        </g>
    </g>
</svg>