<?xml version="1.0" encoding="UTF-8"?>
<svg width="19px" height="18px" viewBox="0 0 19 18" version="1.1" xmlns="http://www.w3.org/2000/svg" xmlns:xlink="http://www.w3.org/1999/xlink">
    <title>编组</title>
    <g id="Page-1" stroke="none" stroke-width="1" fill="none" fill-rule="evenodd">
        <g id="系统管理-效能参数设置" transform="translate(-239.000000, -439.000000)" fill="#3B8DE2">
            <g id="编组-8" transform="translate(239.704316, 416.000000)">
                <g id="编组" transform="translate(0.000000, 24.000000)">
                    <path d="M7.21431403,9.57980301 C5.59640737,7.96384501 4.04896124,6.0912111 4.79037703,5.34784665 C5.85120593,4.28699399 6.77512992,3.6349787 4.89489149,1.29654489 C3.01660172,-1.03996403 1.76760877,0.754794971 0.737102848,1.78323342 C-0.44729931,2.96958423 0.674460711,7.38590239 5.04322693,11.7546924 C9.41006825,16.1196563 13.8283351,17.2451236 15.0127372,16.0569191 C16.0411757,15.0303343 17.8358396,13.7793689 15.4994258,11.9010792 C13.1629406,10.0208407 12.5089767,10.9467134 11.448124,12.0055936 C10.7047595,12.7432071 8.83212563,11.1995633 7.21431403,9.57980301" id="Fill-1"></path>
                    <path d="M16.4404361,1.7984662 L8.53172379,1.7984662 C8.08688382,1.7984662 7.72189119,1.4334498 7.72189119,0.988633599 L7.72189119,0.809832599 C7.72189119,0.364992631 8.08688382,-1.15463195e-14 8.53172379,-1.15463195e-14 L16.4404361,-1.15463195e-14 C16.8852761,-1.15463195e-14 17.2503638,0.364992631 17.2503638,0.809832599 L17.2503638,0.988633599 C17.2503638,1.4353034 16.8852761,1.7984662 16.4404361,1.7984662 Z M16.4404361,5.14827584 L8.53172379,5.14827584 C8.08688382,5.14827584 7.72189119,4.78325944 7.72189119,4.33834818 L7.72189119,4.15964224 C7.72189119,3.71480227 8.08688382,3.34980964 8.53172379,3.34980964 L16.4404361,3.34980964 C16.8852761,3.34980964 17.2503638,3.71480227 17.2503638,4.15964224 L17.2503638,4.33834818 C17.2503638,4.78325944 16.8852761,5.14827584 16.4404361,5.14827584 Z M16.4404361,8.64252361 L8.53172379,8.64252361 C8.08688382,8.64252361 7.72189119,8.27750721 7.72189119,7.83269101 L7.72189119,7.65389001 C7.72189119,7.20905004 8.08688382,6.84405741 8.53172379,6.84405741 L16.4404361,6.84405741 C16.8852761,6.84405741 17.2503638,7.20905004 17.2503638,7.65389001 L17.2503638,7.83269101 C17.2503638,8.27750721 16.8852761,8.64252361 16.4404361,8.64252361 Z" id="Fill-3"></path>
                </g>
            </g>
        </g>
    </g>
</svg>