<?xml version="1.0" encoding="UTF-8"?>
<svg width="19px" height="19px" viewBox="0 0 19 19" version="1.1" xmlns="http://www.w3.org/2000/svg" xmlns:xlink="http://www.w3.org/1999/xlink">
    <title>Fill 1备份</title>
    <defs>
        <path d="M14.0851729,25.4078624 L14.0851729,23.5 L1.87463379,23.5 L1.87463379,31.8947398 C1.87463379,33.580697 3.24137186,34.9473606 4.92727322,34.9473606 L11.0325521,34.9473606 C12.7185093,34.9473606 14.0851729,33.580697 14.0851729,31.8947398 L14.0851729,31.5131412 C15.7711487,31.5131412 17.1378123,30.1464777 17.1378123,28.4605018 C17.1378123,26.7746191 15.7711487,25.4078624 14.0851729,25.4078624 Z M14.0851729,29.9868588 L14.0851729,26.9342194 C14.9281328,26.9342194 15.6115298,27.6175604 15.6115298,28.4605018 C15.6115298,29.3035177 14.9281328,29.9868588 14.0851729,29.9868588 Z M1.87463379,38 L14.0851729,38 L14.0851729,36.4737176 L1.87463379,36.4737176 L1.87463379,38 Z" id="path-1"></path>
    </defs>
    <g id="Page-1" stroke="none" stroke-width="1" fill="none" fill-rule="evenodd">
        <g id="系统管理-效能参数设置" transform="translate(-239.000000, -198.000000)">
            <g id="编组-2" transform="translate(239.704316, 177.000000)">
                <mask id="mask-2" fill="white">
                    <use xlink:href="#path-1"></use>
                </mask>
                <use id="Fill-1备份" fill="#74BC57" xlink:href="#path-1"></use>
            </g>
        </g>
    </g>
</svg>