<?xml version="1.0" encoding="UTF-8"?>
<svg width="19px" height="19px" viewBox="0 0 19 19" version="1.1" xmlns="http://www.w3.org/2000/svg" xmlns:xlink="http://www.w3.org/1999/xlink">
    <title>形状结合备份</title>
    <g id="Page-1" stroke="none" stroke-width="1" fill="none" fill-rule="evenodd">
        <g id="系统管理-效能参数设置" transform="translate(-240.000000, -356.000000)" fill="#844FC4">
            <g id="编组-4" transform="translate(239.704316, 330.000000)">
                <path d="M13.7956843,27.5 C16.0048233,27.5 17.7956843,29.290861 17.7956843,31.5 L17.7956843,39.5 C17.7956843,41.709139 16.0048233,43.5 13.7956843,43.5 L5.79568429,43.5 C3.58654529,43.5 1.79568429,41.709139 1.79568429,39.5 L1.79568429,31.5 C1.79568429,29.290861 3.58654529,27.5 5.79568429,27.5 L13.7956843,27.5 Z M13.3618594,37.5923077 L6.34953045,37.5923077 L6.34953045,39.0692308 L13.3618594,39.0692308 L13.3618594,37.5923077 Z M13.3618594,34.7615385 L6.34953045,34.7615385 L6.34953045,36.2384615 L13.3618594,36.2384615 L13.3618594,34.7615385 Z M13.3618594,31.9307692 L6.34953045,31.9307692 L6.34953045,33.4076923 L13.3618594,33.4076923 L13.3618594,31.9307692 Z" id="形状结合备份"></path>
            </g>
        </g>
    </g>
</svg>